<?xml version="1.0" encoding="UTF-8" standalone="no"?>
<svg xmlns="http://www.w3.org/2000/svg" xmlns:xlink="http://www.w3.org/1999/xlink" contentScriptType="application/ecmascript" contentStyleType="text/css" height="234px" preserveAspectRatio="none" style="width:499px;height:234px;background:#FFFFFF;" version="1.1" viewBox="0 0 499 234" width="499px" zoomAndPan="magnify"><defs/><g><line style="stroke:#000000;stroke-width:1.0;stroke-dasharray:5.0,5.0;" x1="27" x2="27" y1="36.2969" y2="198.8281"/><line style="stroke:#000000;stroke-width:1.0;stroke-dasharray:5.0,5.0;" x1="234.5" x2="234.5" y1="36.2969" y2="198.8281"/><rect fill="#FEFECE" height="30.2969" style="stroke:#A80036;stroke-width:1.5;" width="44" x="5" y="5"/><text fill="#000000" font-family="sans-serif" font-size="14" lengthAdjust="spacing" textLength="30" x="12" y="24.9951">user</text><rect fill="#FEFECE" height="30.2969" style="stroke:#A80036;stroke-width:1.5;" width="44" x="5" y="197.8281"/><text fill="#000000" font-family="sans-serif" font-size="14" lengthAdjust="spacing" textLength="30" x="12" y="217.8232">user</text><rect fill="#FEFECE" height="30.2969" style="stroke:#A80036;stroke-width:1.5;" width="95" x="187.5" y="5"/><text fill="#000000" font-family="sans-serif" font-size="14" lengthAdjust="spacing" textLength="81" x="194.5" y="24.9951">community</text><rect fill="#FEFECE" height="30.2969" style="stroke:#A80036;stroke-width:1.5;" width="95" x="187.5" y="197.8281"/><text fill="#000000" font-family="sans-serif" font-size="14" lengthAdjust="spacing" textLength="81" x="194.5" y="217.8232">community</text><polygon fill="#000000" points="223,63.4297,233,67.4297,223,71.4297,227,67.4297" style="stroke:#000000;stroke-width:1.0;"/><line style="stroke:#000000;stroke-width:1.0;" x1="27" x2="229" y1="67.4297" y2="67.4297"/><text fill="#000000" font-family="sans-serif" font-size="13" lengthAdjust="spacing" textLength="32" x="34" y="62.3638">join()</text><line style="stroke:#000000;stroke-width:1.0;" x1="235" x2="277" y1="96.5625" y2="96.5625"/><line style="stroke:#000000;stroke-width:1.0;" x1="277" x2="277" y1="96.5625" y2="109.5625"/><line style="stroke:#000000;stroke-width:1.0;" x1="236" x2="277" y1="109.5625" y2="109.5625"/><polygon fill="#000000" points="246,105.5625,236,109.5625,246,113.5625,242,109.5625" style="stroke:#000000;stroke-width:1.0;"/><text fill="#000000" font-family="sans-serif" font-size="13" lengthAdjust="spacing" textLength="116" x="242" y="91.4966">Passwort checken</text><polygon fill="#000000" points="38,134.6953,28,138.6953,38,142.6953,34,138.6953" style="stroke:#000000;stroke-width:1.0;"/><line style="stroke:#000000;stroke-width:1.0;stroke-dasharray:2.0,2.0;" x1="32" x2="234" y1="138.6953" y2="138.6953"/><text fill="#000000" font-family="sans-serif" font-size="13" lengthAdjust="spacing" textLength="184" x="44" y="133.6294">invalid, sende zu "/overview"</text><line style="stroke:#000000;stroke-width:1.0;stroke-dasharray:2.0,2.0;" x1="235" x2="277" y1="167.8281" y2="167.8281"/><line style="stroke:#000000;stroke-width:1.0;stroke-dasharray:2.0,2.0;" x1="277" x2="277" y1="167.8281" y2="180.8281"/><line style="stroke:#000000;stroke-width:1.0;stroke-dasharray:2.0,2.0;" x1="236" x2="277" y1="180.8281" y2="180.8281"/><polygon fill="#000000" points="246,176.8281,236,180.8281,246,184.8281,242,180.8281" style="stroke:#000000;stroke-width:1.0;"/><text fill="#000000" font-family="sans-serif" font-size="13" lengthAdjust="spacing" textLength="250" x="242" y="162.7622">valid, sende zu "/community/overview"</text><!--MD5=[e2816d864f0a0404f491dc98bdadaafe]
@startuml
skinparam sequence {
ArrowColor Black
LifeLineBorderColor Black
LifeLineBackgroundColor Black
Bordercolor Black
BackgroundColor White
}
skinparam shadowing false

user -> community: join()
community -> community: Passwort checken
community - -> user: invalid, sende zu "/overview"
community - -> community: valid, sende zu "/community/overview"
@enduml

PlantUML version 1.2021.13beta7(Unknown compile time)
(GPL source distribution)
Java Runtime: Java(TM) SE Runtime Environment
JVM: Java HotSpot(TM) 64-Bit Server VM
Default Encoding: UTF-8
Language: en
Country: US
--></g></svg>