<?xml version="1.0" encoding="UTF-8" standalone="no"?>
<svg xmlns="http://www.w3.org/2000/svg" xmlns:xlink="http://www.w3.org/1999/xlink" contentScriptType="application/ecmascript" contentStyleType="text/css" height="364px" preserveAspectRatio="none" style="width:511px;height:364px;background:#FFFFFF;" version="1.1" viewBox="0 0 511 364" width="511px" zoomAndPan="magnify"><defs/><g><line style="stroke:#000000;stroke-width:1.0;stroke-dasharray:5.0,5.0;" x1="34" x2="34" y1="36.2969" y2="329.3594"/><line style="stroke:#000000;stroke-width:1.0;stroke-dasharray:5.0,5.0;" x1="164.5" x2="164.5" y1="36.2969" y2="329.3594"/><line style="stroke:#000000;stroke-width:1.0;stroke-dasharray:5.0,5.0;" x1="286" x2="286" y1="36.2969" y2="329.3594"/><line style="stroke:#000000;stroke-width:1.0;stroke-dasharray:5.0,5.0;" x1="483.5" x2="483.5" y1="36.2969" y2="329.3594"/><rect fill="#FEFECE" height="30.2969" style="stroke:#A80036;stroke-width:1.5;" width="59" x="5" y="5"/><text fill="#000000" font-family="sans-serif" font-size="14" lengthAdjust="spacing" textLength="45" x="12" y="24.9951">visitor</text><rect fill="#FEFECE" height="30.2969" style="stroke:#A80036;stroke-width:1.5;" width="59" x="5" y="328.3594"/><text fill="#000000" font-family="sans-serif" font-size="14" lengthAdjust="spacing" textLength="45" x="12" y="348.3545">visitor</text><rect fill="#FEFECE" height="30.2969" style="stroke:#A80036;stroke-width:1.5;" width="120" x="104.5" y="5"/><text fill="#000000" font-family="sans-serif" font-size="14" lengthAdjust="spacing" textLength="106" x="111.5" y="24.9951">authentication</text><rect fill="#FEFECE" height="30.2969" style="stroke:#A80036;stroke-width:1.5;" width="120" x="104.5" y="328.3594"/><text fill="#000000" font-family="sans-serif" font-size="14" lengthAdjust="spacing" textLength="106" x="111.5" y="348.3545">authentication</text><rect fill="#FEFECE" height="30.2969" style="stroke:#A80036;stroke-width:1.5;" width="71" x="251" y="5"/><text fill="#000000" font-family="sans-serif" font-size="14" lengthAdjust="spacing" textLength="57" x="258" y="24.9951">account</text><rect fill="#FEFECE" height="30.2969" style="stroke:#A80036;stroke-width:1.5;" width="71" x="251" y="328.3594"/><text fill="#000000" font-family="sans-serif" font-size="14" lengthAdjust="spacing" textLength="57" x="258" y="348.3545">account</text><rect fill="#FEFECE" height="30.2969" style="stroke:#A80036;stroke-width:1.5;" width="44" x="461.5" y="5"/><text fill="#000000" font-family="sans-serif" font-size="14" lengthAdjust="spacing" textLength="30" x="468.5" y="24.9951">user</text><rect fill="#FEFECE" height="30.2969" style="stroke:#A80036;stroke-width:1.5;" width="44" x="461.5" y="328.3594"/><text fill="#000000" font-family="sans-serif" font-size="14" lengthAdjust="spacing" textLength="30" x="468.5" y="348.3545">user</text><polygon fill="#000000" points="152.5,63.4297,162.5,67.4297,152.5,71.4297,156.5,67.4297" style="stroke:#000000;stroke-width:1.0;"/><line style="stroke:#000000;stroke-width:1.0;" x1="34.5" x2="158.5" y1="67.4297" y2="67.4297"/><text fill="#000000" font-family="sans-serif" font-size="13" lengthAdjust="spacing" textLength="59" x="41.5" y="62.3638">register()</text><polygon fill="#000000" points="274.5,92.5625,284.5,96.5625,274.5,100.5625,278.5,96.5625" style="stroke:#000000;stroke-width:1.0;"/><line style="stroke:#000000;stroke-width:1.0;" x1="34.5" x2="280.5" y1="96.5625" y2="96.5625"/><text fill="#000000" font-family="sans-serif" font-size="13" lengthAdjust="spacing" textLength="40" x="41.5" y="91.4966">login()</text><line style="stroke:#000000;stroke-width:1.0;" x1="164.5" x2="206.5" y1="125.6953" y2="125.6953"/><line style="stroke:#000000;stroke-width:1.0;" x1="206.5" x2="206.5" y1="125.6953" y2="138.6953"/><line style="stroke:#000000;stroke-width:1.0;" x1="165.5" x2="206.5" y1="138.6953" y2="138.6953"/><polygon fill="#000000" points="175.5,134.6953,165.5,138.6953,175.5,142.6953,171.5,138.6953" style="stroke:#000000;stroke-width:1.0;"/><text fill="#000000" font-family="sans-serif" font-size="13" lengthAdjust="spacing" textLength="108" x="171.5" y="120.6294">createAccount();</text><polygon fill="#000000" points="274.5,163.8281,284.5,167.8281,274.5,171.8281,278.5,167.8281" style="stroke:#000000;stroke-width:1.0;"/><line style="stroke:#000000;stroke-width:1.0;" x1="164.5" x2="280.5" y1="167.8281" y2="167.8281"/><text fill="#000000" font-family="sans-serif" font-size="13" lengthAdjust="spacing" textLength="86" x="171.5" y="162.7622">addAccount()</text><polygon fill="#000000" points="45.5,192.9609,35.5,196.9609,45.5,200.9609,41.5,196.9609" style="stroke:#000000;stroke-width:1.0;"/><line style="stroke:#000000;stroke-width:1.0;stroke-dasharray:2.0,2.0;" x1="39.5" x2="163.5" y1="196.9609" y2="196.9609"/><text fill="#000000" font-family="sans-serif" font-size="13" lengthAdjust="spacing" textLength="106" x="51.5" y="191.895">sende zu "/login"</text><polygon fill="#000000" points="175.5,206.9609,165.5,210.9609,175.5,214.9609,171.5,210.9609" style="stroke:#000000;stroke-width:1.0;"/><line style="stroke:#000000;stroke-width:1.0;stroke-dasharray:2.0,2.0;" x1="169.5" x2="285.5" y1="210.9609" y2="210.9609"/><line style="stroke:#000000;stroke-width:1.0;" x1="286.5" x2="328.5" y1="240.0938" y2="240.0938"/><line style="stroke:#000000;stroke-width:1.0;" x1="328.5" x2="328.5" y1="240.0938" y2="253.0938"/><line style="stroke:#000000;stroke-width:1.0;" x1="287.5" x2="328.5" y1="253.0938" y2="253.0938"/><polygon fill="#000000" points="297.5,249.0938,287.5,253.0938,297.5,257.0938,293.5,253.0938" style="stroke:#000000;stroke-width:1.0;"/><text fill="#000000" font-family="sans-serif" font-size="13" lengthAdjust="spacing" textLength="70" x="293.5" y="235.0278">check data</text><polygon fill="#000000" points="471.5,278.2266,481.5,282.2266,471.5,286.2266,475.5,282.2266" style="stroke:#000000;stroke-width:1.0;"/><line style="stroke:#000000;stroke-width:1.0;stroke-dasharray:2.0,2.0;" x1="286.5" x2="477.5" y1="282.2266" y2="282.2266"/><text fill="#000000" font-family="sans-serif" font-size="13" lengthAdjust="spacing" textLength="173" x="293.5" y="277.1606">valid, sende zu "/overview"</text><polygon fill="#000000" points="45.5,307.3594,35.5,311.3594,45.5,315.3594,41.5,311.3594" style="stroke:#000000;stroke-width:1.0;"/><line style="stroke:#000000;stroke-width:1.0;stroke-dasharray:2.0,2.0;" x1="39.5" x2="285.5" y1="311.3594" y2="311.3594"/><text fill="#000000" font-family="sans-serif" font-size="13" lengthAdjust="spacing" textLength="155" x="51.5" y="306.2935">invalid, sende zu "/login"</text><!--MD5=[4344e02a36eb8c63f20a6c687689058b]
@startuml
skinparam sequence {
ArrowColor Black
LifeLineBorderColor Black
LifeLineBackgroundColor Black
Bordercolor Black
BackgroundColor White
}
skinparam shadowing false
visitor -> authentication: register()
visitor -> account: login()

authentication -> authentication: createAccount();
authentication -> account: addAccount()
authentication - -> visitor: sende zu "/login"

account - -> authentication
account -> account: check data
account - -> user: valid, sende zu "/overview"
account - -> visitor: invalid, sende zu "/login"
@enduml

PlantUML version 1.2021.13beta7(Unknown compile time)
(GPL source distribution)
Java Runtime: Java(TM) SE Runtime Environment
JVM: Java HotSpot(TM) 64-Bit Server VM
Default Encoding: UTF-8
Language: en
Country: US
--></g></svg>