<?xml version="1.0" encoding="UTF-8" standalone="no"?><!DOCTYPE svg PUBLIC "-//W3C//DTD SVG 1.1//EN" "http://www.w3.org/Graphics/SVG/1.1/DTD/svg11.dtd"><svg width="100%" height="100%" viewBox="0 0 8000 4500" version="1.1" xmlns="http://www.w3.org/2000/svg" xmlns:xlink="http://www.w3.org/1999/xlink" xml:space="preserve" xmlns:serif="http://www.serif.com/" style="fill-rule:evenodd;clip-rule:evenodd;stroke-linejoin:round;stroke-miterlimit:2;"><path d="M0,0l0,1358.02c0,0 883.461,399.419 1342.73,402.876c646.003,4.862 1686.77,-420.06 2533.29,-373.703c846.52,46.358 1858.5,656.71 2545.83,651.847c554.11,-3.919 1578.15,-681.02 1578.15,-681.02l0,-1358.02" style="fill-opacity:0.15;"/><path d="M0,0l0,1037.03c0,0 782.56,273.825 1396.9,262.262c679.197,-12.785 1469.76,-163.678 2291.62,-179.433c844.677,-16.191 2342.35,391.395 2750,392.268c582.398,1.246 1561.48,-475.097 1561.48,-475.097l0,-1037.03" style="fill-opacity:0.15;"/></svg>