<?xml version="1.0" encoding="UTF-8" standalone="no"?><!DOCTYPE svg PUBLIC "-//W3C//DTD SVG 1.1//EN" "http://www.w3.org/Graphics/SVG/1.1/DTD/svg11.dtd"><svg width="100%" height="100%" viewBox="0 0 33334 18750" version="1.1" xmlns="http://www.w3.org/2000/svg" xmlns:xlink="http://www.w3.org/1999/xlink" xml:space="preserve" xmlns:serif="http://www.serif.com/" style="fill-rule:evenodd;clip-rule:evenodd;stroke-linejoin:round;stroke-miterlimit:2;"><path d="M0,0l0,5658.42c0,0 3681.09,1664.25 5594.71,1678.65c2691.68,20.258 7028.21,-1750.25 10555.4,-1557.1c3527.17,193.158 7743.75,2736.29 10607.6,2716.03c2308.79,-16.329 6575.62,-2837.58 6575.62,-2837.58l0,-5658.42" style="fill:url(#_Linear1);"/><path d="M0,0l0,4320.96c0,0 3260.67,1140.94 5820.42,1092.76c2829.99,-53.271 6124,-681.992 9548.42,-747.638c3519.49,-67.462 9759.79,1630.81 11458.3,1634.45c2426.66,5.192 6506.17,-1979.57 6506.17,-1979.57l0,-4320.96" style="fill:url(#_Linear2);"/><defs><linearGradient id="_Linear1" x1="0" y1="0" x2="1" y2="0" gradientUnits="userSpaceOnUse" gradientTransform="matrix(28409.1,1245.63,-1245.63,28409.1,2008.67,5408.65)"><stop offset="0" style="stop-color:#0059ff;stop-opacity:0.69"/><stop offset="1" style="stop-color:#008cff;stop-opacity:0.69"/></linearGradient><linearGradient id="_Linear2" x1="0" y1="0" x2="1" y2="0" gradientUnits="userSpaceOnUse" gradientTransform="matrix(31687.1,2578.67,-2578.67,31687.1,1047.13,961.538)"><stop offset="0" style="stop-color:#0068ff;stop-opacity:0.69"/><stop offset="1" style="stop-color:#00beff;stop-opacity:0.69"/></linearGradient></defs></svg>