<?xml version="1.0" encoding="UTF-8" standalone="no"?><!DOCTYPE svg PUBLIC "-//W3C//DTD SVG 1.1//EN" "http://www.w3.org/Graphics/SVG/1.1/DTD/svg11.dtd"><svg width="100%" height="100%" viewBox="0 0 2134 2134" version="1.1" xmlns="http://www.w3.org/2000/svg" xmlns:xlink="http://www.w3.org/1999/xlink" xml:space="preserve" xmlns:serif="http://www.serif.com/" style="fill-rule:evenodd;clip-rule:evenodd;stroke-linejoin:round;stroke-miterlimit:2;"><g><path d="M1020.83,510.417c0,-281.707 -228.71,-510.417 -510.416,-510.417l-122.5,0c0,214.097 -173.82,387.917 -387.917,387.917l0,122.5c0,281.706 228.71,510.416 510.417,510.416l510.416,0l0,-510.416Z" style="fill:#0b9d00;"/><path d="M2133.33,387.917c-214.097,0 -387.916,-173.82 -387.916,-387.917l-122.5,0c-281.707,0 -510.417,228.71 -510.417,510.417l0,510.416l510.417,0c281.706,0 510.416,-228.71 510.416,-510.416l0,-122.5Z" style="fill:#0b9d00;"/><path d="M1020.83,1112.5l-510.416,0c-281.707,0 -510.417,228.71 -510.417,510.417l0,132.708c208.463,0 377.708,169.245 377.708,377.708l132.709,0c281.706,0 510.416,-228.71 510.416,-510.416l0,-510.417Z" style="fill:#0b9d00;"/><path d="M2133.33,1622.92c0,-281.707 -228.71,-510.417 -510.416,-510.417l-510.417,0l0,510.417c0,281.706 228.71,510.416 510.417,510.416l122.5,0c0,-214.097 173.819,-387.916 387.916,-387.916l0,-122.5Z" style="fill:#0b9d00;"/><path d="M984.491,510.417c0,-261.649 -212.426,-474.074 -474.074,-474.074l-94.815,0c0,209.318 -169.941,379.259 -379.259,379.259l0,94.815c0,261.648 212.425,474.074 474.074,474.074l474.074,0l0,-474.074Z" style="fill:#0fd000;"/><path d="M2096.99,415.602c-209.319,0 -379.26,-169.941 -379.26,-379.259l-94.814,0c-261.649,0 -474.074,212.425 -474.074,474.074l0,474.074l474.074,0c261.648,0 474.074,-212.426 474.074,-474.074l0,-94.815Z" style="fill:#0fd000;"/><path d="M984.491,1148.84l-474.074,0c-261.649,0 -474.074,212.425 -474.074,474.074l0,94.814c209.318,0 379.259,169.941 379.259,379.26l94.815,0c261.648,0 474.074,-212.426 474.074,-474.074l0,-474.074Z" style="fill:#0fd000;"/><path d="M2096.99,1622.92c0,-261.649 -212.426,-474.074 -474.074,-474.074l-474.074,0l0,474.074c0,261.648 212.425,474.074 474.074,474.074l94.814,0c0,-209.319 169.941,-379.26 379.26,-379.26l0,-94.814Z" style="fill:#0fd000;"/></g></svg>