<?xml version="1.0" encoding="UTF-8" standalone="no"?>
<!DOCTYPE svg PUBLIC "-//W3C//DTD SVG 1.0//EN" "http://www.w3.org/TR/2001/PR-SVG-20010719/DTD/svg10.dtd">
<svg width="88cm" height="59cm" viewBox="235 122 1743 1161" xmlns="http://www.w3.org/2000/svg" xmlns:xlink="http://www.w3.org/1999/xlink">
  <g>
    <rect style="fill: #ffffff" x="236.9" y="143" width="1741" height="1139"/>
    <rect style="fill: none; fill-opacity:0; stroke-width: 2; stroke: #000000" x="236.9" y="143" width="1741" height="1139"/>
    <rect style="fill: #ffffff" x="236.9" y="123" width="158" height="20"/>
    <rect style="fill: none; fill-opacity:0; stroke-width: 2; stroke: #000000" x="236.9" y="123" width="158" height="20"/>
    <text font-size="12.7998" style="fill: #000000;text-anchor:start;font-family:monospace;font-style:normal;font-weight:normal" x="238.9" y="137">package lottery.user</text>
  </g>
  <g>
    <rect style="fill: #d4ddff" x="286.9" y="612" width="1608" height="608"/>
    <rect style="fill: none; fill-opacity:0; stroke-width: 2; stroke: #000000" x="286.9" y="612" width="1608" height="608"/>
    <rect style="fill: #d4ddff" x="286.9" y="592" width="134.9" height="20"/>
    <rect style="fill: none; fill-opacity:0; stroke-width: 2; stroke: #000000" x="286.9" y="592" width="134.9" height="20"/>
    <text font-size="12.7998" style="fill: #000000;text-anchor:start;font-family:monospace;font-style:normal;font-weight:normal" x="288.9" y="606">lottery.community</text>
  </g>
  <g>
    <rect style="fill: #d4ddff" x="344.9" y="196" width="744.052" height="167"/>
    <rect style="fill: none; fill-opacity:0; stroke-width: 2; stroke: #000000" x="344.9" y="196" width="744.052" height="167"/>
    <rect style="fill: #d4ddff" x="344.9" y="176" width="81" height="20"/>
    <rect style="fill: none; fill-opacity:0; stroke-width: 2; stroke: #000000" x="344.9" y="176" width="81" height="20"/>
    <text font-size="12.7998" style="fill: #000000;text-anchor:start;font-family:monospace;font-style:normal;font-weight:normal" x="346.9" y="190">Salespoint</text>
  </g>
  <g>
    <rect style="fill: #d4ddff" x="1226.9" y="191" width="683" height="315"/>
    <rect style="fill: none; fill-opacity:0; stroke-width: 2; stroke: #000000" x="1226.9" y="191" width="683" height="315"/>
    <rect style="fill: #d4ddff" x="1226.9" y="171" width="50.2" height="20"/>
    <rect style="fill: none; fill-opacity:0; stroke-width: 2; stroke: #000000" x="1226.9" y="171" width="50.2" height="20"/>
    <text font-size="12.7998" style="fill: #000000;text-anchor:start;font-family:monospace;font-style:normal;font-weight:normal" x="1228.9" y="185">Spring</text>
  </g>
  <g>
    <rect style="fill: #ffcd99" x="388.9" y="682" width="402.7" height="28"/>
    <rect style="fill: none; fill-opacity:0; stroke-width: 2; stroke: #000000" x="388.9" y="682" width="402.7" height="28"/>
    <text font-size="16" style="fill: #000000;text-anchor:middle;font-family:sans-serif;font-style:normal;font-weight:700" x="590.25" y="702">User</text>
    <rect style="fill: #ffcd99" x="388.9" y="710" width="402.7" height="36"/>
    <rect style="fill: none; fill-opacity:0; stroke-width: 2; stroke: #000000" x="388.9" y="710" width="402.7" height="36"/>
    <text font-size="12.8" style="fill: #000000;text-anchor:start;font-family:monospace;font-style:normal;font-weight:normal" x="391.9" y="723.2">-id: long</text>
    <text font-size="12.8" style="fill: #000000;text-anchor:start;font-family:monospace;font-style:normal;font-weight:normal" x="391.9" y="739.2">-emailAdress: String</text>
    <rect style="fill: #ffcd99" x="388.9" y="746" width="402.7" height="84"/>
    <rect style="fill: none; fill-opacity:0; stroke-width: 2; stroke: #000000" x="388.9" y="746" width="402.7" height="84"/>
    <text font-size="12.8" style="fill: #000000;text-anchor:start;font-family:monospace;font-style:normal;font-weight:normal" x="391.9" y="759.2">+User(name:String,password:String,users:List&lt;long&gt;)</text>
    <text font-size="12.8" style="fill: #000000;text-anchor:start;font-family:monospace;font-style:normal;font-weight:normal" x="391.9" y="775.2">+getId(): long</text>
    <text font-size="12.8" style="fill: #000000;text-anchor:start;font-family:monospace;font-style:normal;font-weight:normal" x="391.9" y="791.2">+getName(): String</text>
    <text font-size="12.8" style="fill: #000000;text-anchor:start;font-family:monospace;font-style:normal;font-weight:normal" x="391.9" y="807.2">+getEmailAdress(): String</text>
    <text font-size="12.8" style="fill: #000000;text-anchor:start;font-family:monospace;font-style:normal;font-weight:normal" x="391.9" y="823.2">+setEmailAdress(emailAdress:String): void</text>
  </g>
  <g>
    <rect style="fill: #ffcd99" x="1212.9" y="684" width="448.9" height="28"/>
    <rect style="fill: none; fill-opacity:0; stroke-width: 2; stroke: #000000" x="1212.9" y="684" width="448.9" height="28"/>
    <text font-size="16" style="fill: #000000;text-anchor:middle;font-family:sans-serif;font-style:normal;font-weight:700" x="1437.35" y="704">UserController</text>
    <rect style="fill: #ffcd99" x="1212.9" y="712" width="448.9" height="8"/>
    <rect style="fill: none; fill-opacity:0; stroke-width: 2; stroke: #000000" x="1212.9" y="712" width="448.9" height="8"/>
    <rect style="fill: #ffcd99" x="1212.9" y="720" width="448.9" height="68"/>
    <rect style="fill: none; fill-opacity:0; stroke-width: 2; stroke: #000000" x="1212.9" y="720" width="448.9" height="68"/>
    <text font-size="12.8" style="fill: #000000;text-anchor:start;font-family:monospace;font-style:normal;font-weight:normal" x="1215.9" y="733.2">+UserController(userManagement:UserMagament)</text>
    <text font-size="12.8" style="fill: #000000;text-anchor:start;font-family:monospace;font-style:normal;font-weight:normal" x="1215.9" y="749.2">+registerNew(form:RegistrationForm,result:Errors): String</text>
    <text font-size="12.8" style="fill: #000000;text-anchor:start;font-family:monospace;font-style:normal;font-weight:normal" x="1215.9" y="765.2">+register(model:Model,form:RegistrationForm): String</text>
    <text font-size="12.8" style="fill: #000000;text-anchor:start;font-family:monospace;font-style:normal;font-weight:normal" x="1215.9" y="781.2">+users(model:Model): String</text>
  </g>
  <g>
    <rect style="fill: #ffcd99" x="1227.9" y="931.333" width="541.3" height="28"/>
    <rect style="fill: none; fill-opacity:0; stroke-width: 2; stroke: #000000" x="1227.9" y="931.333" width="541.3" height="28"/>
    <text font-size="16" style="fill: #000000;text-anchor:middle;font-family:sans-serif;font-style:normal;font-weight:700" x="1498.55" y="951.333">UserManagement</text>
    <rect style="fill: #ffcd99" x="1227.9" y="959.333" width="541.3" height="8"/>
    <rect style="fill: none; fill-opacity:0; stroke-width: 2; stroke: #000000" x="1227.9" y="959.333" width="541.3" height="8"/>
    <rect style="fill: #ffcd99" x="1227.9" y="967.333" width="541.3" height="52"/>
    <rect style="fill: none; fill-opacity:0; stroke-width: 2; stroke: #000000" x="1227.9" y="967.333" width="541.3" height="52"/>
    <text font-size="12.8" style="fill: #000000;text-anchor:start;font-family:monospace;font-style:normal;font-weight:normal" x="1230.9" y="980.533">+UserManagement(users:UserRepository,userAccounts:UserAccountManager)</text>
    <text font-size="12.8" style="fill: #000000;text-anchor:start;font-family:monospace;font-style:normal;font-weight:normal" x="1230.9" y="996.533">+createUser(form:RegistrationForm): Community</text>
    <text font-size="12.8" style="fill: #000000;text-anchor:start;font-family:monospace;font-style:normal;font-weight:normal" x="1230.9" y="1012.53">+findAll(): Streamable</text>
  </g>
  <g>
    <rect style="fill: #ffcd99" x="329.9" y="1027" width="464.3" height="28"/>
    <rect style="fill: none; fill-opacity:0; stroke-width: 2; stroke: #000000" x="329.9" y="1027" width="464.3" height="28"/>
    <text font-size="16" style="fill: #000000;text-anchor:middle;font-family:sans-serif;font-style:normal;font-weight:700" x="562.05" y="1047">UserDataInitializer</text>
    <rect style="fill: #ffcd99" x="329.9" y="1055" width="464.3" height="8"/>
    <rect style="fill: none; fill-opacity:0; stroke-width: 2; stroke: #000000" x="329.9" y="1055" width="464.3" height="8"/>
    <rect style="fill: #ffcd99" x="329.9" y="1063" width="464.3" height="52"/>
    <rect style="fill: none; fill-opacity:0; stroke-width: 2; stroke: #000000" x="329.9" y="1063" width="464.3" height="52"/>
    <text font-size="12.8" style="fill: #000000;text-anchor:start;font-family:monospace;font-style:normal;font-weight:normal" x="332.9" y="1076.2">+UserDataInitializer(userAccountManager:UserAccountManager,</text>
    <text font-size="12.8" style="fill: #000000;text-anchor:start;font-family:monospace;font-style:normal;font-weight:normal" x="332.9" y="1092.2">                     userRepository:UserRepository)</text>
    <text font-size="12.8" style="fill: #000000;text-anchor:start;font-family:monospace;font-style:normal;font-weight:normal" x="332.9" y="1108.2">+initialize(): void</text>
  </g>
  <g>
    <rect style="fill: #90ee90" x="643.233" y="258.667" width="126.45" height="44"/>
    <rect style="fill: none; fill-opacity:0; stroke-width: 2; stroke: #000000" x="643.233" y="258.667" width="126.45" height="44"/>
    <text font-size="12.8" style="fill: #000000;text-anchor:middle;font-family:monospace;font-style:normal;font-weight:normal" x="706.458" y="273.867">&lt;&lt;interface&gt;&gt;</text>
    <text font-size="16" style="fill: #000000;text-anchor:middle;font-family:sans-serif;font-style:normal;font-weight:700" x="706.458" y="294.667">DataInitializer</text>
  </g>
  <g>
    <rect style="fill: #ffcd99" x="413.9" y="257.667" width="111.4" height="28"/>
    <rect style="fill: none; fill-opacity:0; stroke-width: 2; stroke: #000000" x="413.9" y="257.667" width="111.4" height="28"/>
    <text font-size="16" style="fill: #000000;text-anchor:middle;font-family:sans-serif;font-style:normal;font-weight:700" x="469.6" y="277.667">UserAccount</text>
    <rect style="fill: #ffcd99" x="413.9" y="285.667" width="111.4" height="8"/>
    <rect style="fill: none; fill-opacity:0; stroke-width: 2; stroke: #000000" x="413.9" y="285.667" width="111.4" height="8"/>
    <rect style="fill: #ffcd99" x="413.9" y="293.667" width="111.4" height="8"/>
    <rect style="fill: none; fill-opacity:0; stroke-width: 2; stroke: #000000" x="413.9" y="293.667" width="111.4" height="8"/>
  </g>
  <g>
    <rect style="fill: #90ee90" x="843.567" y="254.333" width="181.65" height="44"/>
    <rect style="fill: none; fill-opacity:0; stroke-width: 2; stroke: #000000" x="843.567" y="254.333" width="181.65" height="44"/>
    <text font-size="12.8" style="fill: #000000;text-anchor:middle;font-family:monospace;font-style:normal;font-weight:normal" x="934.392" y="269.533">&lt;&lt;interface&gt;&gt;</text>
    <text font-size="16" style="fill: #000000;text-anchor:middle;font-family:sans-serif;font-style:normal;font-weight:700" x="934.392" y="290.333">UserAccountManager</text>
  </g>
  <g>
    <rect style="fill: #ffcd99" x="1545.57" y="218.667" width="60.7" height="28"/>
    <rect style="fill: none; fill-opacity:0; stroke-width: 2; stroke: #000000" x="1545.57" y="218.667" width="60.7" height="28"/>
    <text font-size="16" style="fill: #000000;text-anchor:middle;font-family:sans-serif;font-style:normal;font-weight:700" x="1575.92" y="238.667">Assert</text>
  </g>
  <g>
    <rect style="fill: #90ee90" x="1319.9" y="297.667" width="110.1" height="44"/>
    <rect style="fill: none; fill-opacity:0; stroke-width: 2; stroke: #000000" x="1319.9" y="297.667" width="110.1" height="44"/>
    <text font-size="12.8" style="fill: #000000;text-anchor:middle;font-family:monospace;font-style:normal;font-weight:normal" x="1374.95" y="312.867">&lt;&lt;interface&gt;&gt;</text>
    <text font-size="16" style="fill: #000000;text-anchor:middle;font-family:sans-serif;font-style:normal;font-weight:700" x="1374.95" y="333.667">Model</text>
  </g>
  <g>
    <rect style="fill: #90ee90" x="1321.23" y="381.667" width="110.1" height="44"/>
    <rect style="fill: none; fill-opacity:0; stroke-width: 2; stroke: #000000" x="1321.23" y="381.667" width="110.1" height="44"/>
    <text font-size="12.8" style="fill: #000000;text-anchor:middle;font-family:monospace;font-style:normal;font-weight:normal" x="1376.28" y="396.867">&lt;&lt;interface&gt;&gt;</text>
    <text font-size="16" style="fill: #000000;text-anchor:middle;font-family:sans-serif;font-style:normal;font-weight:700" x="1376.28" y="417.667">Errors</text>
  </g>
  <g>
    <rect style="fill: #90ee90" x="1747.9" y="387" width="134.8" height="44"/>
    <rect style="fill: none; fill-opacity:0; stroke-width: 2; stroke: #000000" x="1747.9" y="387" width="134.8" height="44"/>
    <text font-size="12.8" style="fill: #000000;text-anchor:middle;font-family:monospace;font-style:normal;font-weight:normal" x="1815.3" y="402.2">&lt;&lt;interface&gt;&gt;</text>
    <text font-size="16" style="fill: #000000;text-anchor:middle;font-family:sans-serif;font-style:normal;font-weight:700" x="1815.3" y="423">CrudRepository</text>
    <rect style="fill: #90ee90" x="1836.7" y="357" width="54" height="36"/>
    <rect style="fill: none; fill-opacity:0; stroke-width: 2; stroke-dasharray: 6; stroke: #000000" x="1836.7" y="357" width="54" height="36"/>
    <text font-size="12.8" style="fill: #000000;text-anchor:start;font-family:monospace;font-style:normal;font-weight:normal" x="1842.7" y="370.2">T:</text>
    <text font-size="12.8" style="fill: #000000;text-anchor:start;font-family:monospace;font-style:normal;font-weight:normal" x="1842.7" y="386.2">ID:</text>
  </g>
  <g>
    <rect style="fill: #90ee90" x="1757.23" y="290" width="110.1" height="44"/>
    <rect style="fill: none; fill-opacity:0; stroke-width: 2; stroke: #000000" x="1757.23" y="290" width="110.1" height="44"/>
    <text font-size="12.8" style="fill: #000000;text-anchor:middle;font-family:monospace;font-style:normal;font-weight:normal" x="1812.28" y="305.2">&lt;&lt;interface&gt;&gt;</text>
    <text font-size="16" style="fill: #000000;text-anchor:middle;font-family:sans-serif;font-style:normal;font-weight:700" x="1812.28" y="326">Streamable</text>
    <rect style="fill: #90ee90" x="1821.33" y="276" width="54" height="20"/>
    <rect style="fill: none; fill-opacity:0; stroke-width: 2; stroke-dasharray: 6; stroke: #000000" x="1821.33" y="276" width="54" height="20"/>
    <text font-size="12.8" style="fill: #000000;text-anchor:start;font-family:monospace;font-style:normal;font-weight:normal" x="1827.33" y="289.2">T:</text>
  </g>
  <g>
    <polyline style="fill: none; fill-opacity:0; stroke-width: 2; stroke-dasharray: 8; stroke: #000000" points="1227.9,977.333 1227.9,986 590.25,986 590.25,836.705 "/>
    <polyline style="fill: none; fill-opacity:0; stroke-width: 2; stroke: #000000" points="595.25,849.353 590.25,833.353 585.25,849.353 "/>
  </g>
  <g>
    <polyline style="fill: none; fill-opacity:0; stroke-width: 2; stroke: #000000" points="590.25,680.996 590.25,662 469.6,662 469.6,306.139 "/>
    <polyline style="fill: none; fill-opacity:0; stroke-width: 2; stroke: #000000" points="477.6,319.903 469.6,303.903 461.6,319.903 "/>
    <text font-size="12.7998" style="fill: #000000;text-anchor:middle;font-family:monospace;font-style:normal;font-weight:normal" x="529.925" y="662">userAccount</text>
    <text font-size="12.7998" style="fill: #000000;text-anchor:start;font-family:monospace;font-style:normal;font-weight:normal" x="594.25" y="676.996"></text>
    <text font-size="12.7998" style="fill: #000000;text-anchor:start;font-family:monospace;font-style:normal;font-weight:normal" x="480.6" y="313.667">1</text>
  </g>
  <g>
    <polyline style="fill: none; fill-opacity:0; stroke-width: 2; stroke: #000000" points="1025.22,302.805 1025.22,952 1227.9,952 1227.9,945.333 "/>
    <polyline style="fill: none; fill-opacity:0; stroke-width: 2; stroke: #000000" points="1033.22,316.569 1025.22,300.569 1017.22,316.569 "/>
    <text font-size="12.7998" style="fill: #000000;text-anchor:middle;font-family:monospace;font-style:normal;font-weight:normal" x="1126.56" y="952">userAccounts</text>
    <text font-size="12.7998" style="fill: #000000;text-anchor:start;font-family:monospace;font-style:normal;font-weight:normal" x="1036.22" y="310.333">1</text>
    <text font-size="12.7998" style="fill: #000000;text-anchor:start;font-family:monospace;font-style:normal;font-weight:normal" x="1231.9" y="957.333"></text>
  </g>
  <g>
    <polyline style="fill: none; fill-opacity:0; stroke-width: 2; stroke: #000000" points="794.2,1041 794.2,1035 934.392,1035 934.392,303.796 "/>
    <polyline style="fill: none; fill-opacity:0; stroke-width: 2; stroke: #000000" points="942.392,317.56 934.392,301.56 926.392,317.56 "/>
    <text font-size="12.7998" style="fill: #000000;text-anchor:middle;font-family:monospace;font-style:normal;font-weight:normal" x="864.296" y="1035">userAccountManager</text>
    <text font-size="12.7998" style="fill: #000000;text-anchor:start;font-family:monospace;font-style:normal;font-weight:normal" x="798.2" y="1037"></text>
    <text font-size="12.7998" style="fill: #000000;text-anchor:start;font-family:monospace;font-style:normal;font-weight:normal" x="945.392" y="311.324">1</text>
  </g>
  <g>
    <polyline style="fill: none; fill-opacity:0; stroke-width: 2; stroke: #000000" points="1437.35,789.008 1437.35,817 1498.55,817 1498.55,925.856 "/>
    <polyline style="fill: none; fill-opacity:0; stroke-width: 2; stroke: #000000" points="1490.55,912.092 1498.55,928.092 1506.55,912.092 "/>
    <text font-size="12.7998" style="fill: #000000;text-anchor:middle;font-family:monospace;font-style:normal;font-weight:normal" x="1467.95" y="817">communityManagement</text>
    <text font-size="12.7998" style="fill: #000000;text-anchor:start;font-family:monospace;font-style:normal;font-weight:normal" x="1441.35" y="801.008">1</text>
    <text font-size="12.7998" style="fill: #000000;text-anchor:start;font-family:monospace;font-style:normal;font-weight:normal" x="1509.55" y="926.329"></text>
  </g>
  <g>
    <rect style="fill: #90ee90" x="1317.9" y="1095" width="179.4" height="28"/>
    <rect style="fill: none; fill-opacity:0; stroke-width: 2; stroke: #000000" x="1317.9" y="1095" width="179.4" height="28"/>
    <text font-size="16" style="fill: #000000;text-anchor:middle;font-family:sans-serif;font-style:normal;font-weight:700" x="1407.6" y="1115">RegistrationForm</text>
    <rect style="fill: #90ee90" x="1317.9" y="1123" width="179.4" height="8"/>
    <rect style="fill: none; fill-opacity:0; stroke-width: 2; stroke: #000000" x="1317.9" y="1123" width="179.4" height="8"/>
    <rect style="fill: #90ee90" x="1317.9" y="1131" width="179.4" height="36"/>
    <rect style="fill: none; fill-opacity:0; stroke-width: 2; stroke: #000000" x="1317.9" y="1131" width="179.4" height="36"/>
    <text font-size="12.8" style="fill: #000000;text-anchor:start;font-family:monospace;font-style:normal;font-weight:normal" x="1320.9" y="1144.2">+getName(): String</text>
    <text font-size="12.8" style="fill: #000000;text-anchor:start;font-family:monospace;font-style:normal;font-weight:normal" x="1320.9" y="1160.2">+getPassword(): String</text>
  </g>
  <g>
    <rect style="fill: #90ee90" x="1552.9" y="1117" width="133.35" height="28"/>
    <rect style="fill: none; fill-opacity:0; stroke-width: 2; stroke: #000000" x="1552.9" y="1117" width="133.35" height="28"/>
    <text font-size="16" style="fill: #000000;text-anchor:middle;font-family:sans-serif;font-style:normal;font-weight:700" x="1619.57" y="1137">UserRepository</text>
  </g>
  <g>
    <polyline style="fill: none; fill-opacity:0; stroke-width: 2; stroke-dasharray: 8; stroke: #000000" points="1498.55,1020.34 1498.55,1053.16 1407.6,1053.16 1407.6,1087.29 "/>
    <polyline style="fill: none; fill-opacity:0; stroke-width: 2; stroke: #000000" points="1402.6,1074.64 1407.6,1090.64 1412.6,1074.64 "/>
  </g>
  <g>
    <polyline style="fill: none; fill-opacity:0; stroke-width: 2; stroke: #000000" points="1769.2,1019.33 1769.2,1059.67 1619.57,1059.67 1619.57,1111.53 "/>
    <polyline style="fill: none; fill-opacity:0; stroke-width: 2; stroke: #000000" points="1611.57,1097.77 1619.57,1113.77 1627.57,1097.77 "/>
    <text font-size="12.7998" style="fill: #000000;text-anchor:middle;font-family:monospace;font-style:normal;font-weight:normal" x="1694.39" y="1059.67">users</text>
    <text font-size="12.7998" style="fill: #000000;text-anchor:start;font-family:monospace;font-style:normal;font-weight:normal" x="1773.2" y="1031.33"></text>
    <text font-size="12.7998" style="fill: #000000;text-anchor:start;font-family:monospace;font-style:normal;font-weight:normal" x="1630.57" y="1112.01">1</text>
  </g>
  <g>
    <polyline style="fill: none; fill-opacity:0; stroke-width: 2; stroke-dasharray: 8; stroke: #000000" points="794.2,1073 1177.9,1073 1177.9,232.667 1538.86,232.667 "/>
    <polyline style="fill: none; fill-opacity:0; stroke-width: 2; stroke: #000000" points="1526.21,237.667 1542.21,232.667 1526.21,227.667 "/>
  </g>
  <g>
    <polyline style="fill: none; fill-opacity:0; stroke-width: 2; stroke-dasharray: 8; stroke: #000000" points="1437.35,684 1437.35,683.667 1284.9,683.667 1284.9,319.667 1313.19,319.667 "/>
    <polyline style="fill: none; fill-opacity:0; stroke-width: 2; stroke: #000000" points="1300.55,324.667 1316.55,319.667 1300.55,314.667 "/>
  </g>
  <g>
    <polyline style="fill: none; fill-opacity:0; stroke-width: 2; stroke-dasharray: 8; stroke: #000000" points="1437.35,684 1437.35,683.667 1479.9,683.667 1479.9,403.667 1438.95,403.667 "/>
    <polyline style="fill: none; fill-opacity:0; stroke-width: 2; stroke: #000000" points="1451.59,398.667 1435.59,403.667 1451.59,408.667 "/>
  </g>
  <g>
    <polyline style="fill: none; fill-opacity:0; stroke-width: 2; stroke-dasharray: 8; stroke: #000000" points="1437.35,684 1250.9,684 1250.9,232.667 1537.86,232.667 "/>
    <polyline style="fill: none; fill-opacity:0; stroke-width: 2; stroke: #000000" points="1525.21,237.667 1541.21,232.667 1525.21,227.667 "/>
  </g>
  <g>
    <polyline style="fill: none; fill-opacity:0; stroke-width: 2; stroke-dasharray: 8; stroke: #000000" points="1498.55,931.333 1682.29,931.333 1682.29,232.667 1612.97,232.667 "/>
    <polyline style="fill: none; fill-opacity:0; stroke-width: 2; stroke: #000000" points="1625.62,227.667 1609.62,232.667 1625.62,237.667 "/>
  </g>
  <g>
    <polyline style="fill: none; fill-opacity:0; stroke-width: 2; stroke-dasharray: 8; stroke: #000000" points="1498.55,931.333 1724.95,931.333 1724.95,312 1749.54,312 "/>
    <polyline style="fill: none; fill-opacity:0; stroke-width: 2; stroke: #000000" points="1736.89,317 1752.89,312 1736.89,307 "/>
  </g>
  <g>
    <polyline style="fill: none; fill-opacity:0; stroke-width: 2; stroke: #000000" points="562.05,1115 562.05,1181 1619.57,1181 1619.57,1149.47 "/>
    <polyline style="fill: none; fill-opacity:0; stroke-width: 2; stroke: #000000" points="1627.57,1163.24 1619.57,1147.24 1611.57,1163.24 "/>
    <text font-size="12.7998" style="fill: #000000;text-anchor:middle;font-family:monospace;font-style:normal;font-weight:normal" x="1090.81" y="1181">userRepository</text>
    <text font-size="12.7998" style="fill: #000000;text-anchor:start;font-family:monospace;font-style:normal;font-weight:normal" x="566.05" y="1127"></text>
    <text font-size="12.7998" style="fill: #000000;text-anchor:start;font-family:monospace;font-style:normal;font-weight:normal" x="1630.57" y="1157">1</text>
  </g>
  <g>
    <polyline style="fill: none; fill-opacity:0; stroke-width: 2; stroke-dasharray: 8; stroke: #000000" points="1686.25,1131 1815.3,1131 1815.3,437.705 "/>
    <polyline style="fill: none; fill-opacity:0; stroke-width: 2; stroke: #000000" points="1820.3,450.353 1815.3,434.353 1810.3,450.353 "/>
  </g>
  <g>
    <polyline style="fill: none; fill-opacity:0; stroke-width: 2; stroke-dasharray: 8; stroke: #000000" points="590.25,682 590.25,682.333 706.458,682.333 706.458,310.374 "/>
    <polyline style="fill: none; fill-opacity:0; stroke-width: 2; stroke: #000000" points="711.458,323.021 706.458,307.021 701.458,323.021 "/>
  </g>
</svg>
