<?xml version="1.0" encoding="UTF-8" standalone="no"?>
<!DOCTYPE svg PUBLIC "-//W3C//DTD SVG 1.0//EN" "http://www.w3.org/TR/2001/PR-SVG-20010719/DTD/svg10.dtd">
<svg width="55cm" height="35cm" viewBox="-1 -23 1097 683" xmlns="http://www.w3.org/2000/svg" xmlns:xlink="http://www.w3.org/1999/xlink">
  <g>
    <rect style="fill: #ffffff" x="-0.172373" y="-2.26383" width="1095.22" height="661.764"/>
    <rect style="fill: none; fill-opacity:0; stroke-width: 1; stroke: #000000" x="-0.172373" y="-2.26383" width="1095.22" height="661.764"/>
    <rect style="fill: #ffffff" x="-0.172373" y="-22.2638" width="119.5" height="20"/>
    <rect style="fill: none; fill-opacity:0; stroke-width: 1; stroke: #000000" x="-0.172373" y="-22.2638" width="119.5" height="20"/>
    <text font-size="12.7998" style="fill: #000000;text-anchor:start;font-family:monospace;font-style:normal;font-weight:normal" x="1.82763" y="-7.26383">package lottery</text>
  </g>
  <g>
    <rect style="fill: #add8e6" x="590.716" y="375.278" width="342.572" height="64.306"/>
    <rect style="fill: none; fill-opacity:0; stroke-width: 1; stroke: #000000" x="590.716" y="375.278" width="342.572" height="64.306"/>
    <rect style="fill: #add8e6" x="590.716" y="355.278" width="81" height="20"/>
    <rect style="fill: none; fill-opacity:0; stroke-width: 1; stroke: #000000" x="590.716" y="355.278" width="81" height="20"/>
    <text font-size="12.7998" style="fill: #000000;text-anchor:start;font-family:monospace;font-style:normal;font-weight:normal" x="592.716" y="370.278">Salespoint</text>
  </g>
  <g>
    <rect style="fill: #add8e6" x="50.7207" y="48.6292" width="889.111" height="267.786"/>
    <rect style="fill: none; fill-opacity:0; stroke-width: 1; stroke: #000000" x="50.7207" y="48.6292" width="889.111" height="267.786"/>
    <rect style="fill: #add8e6" x="50.7207" y="28.6292" width="57.9" height="20"/>
    <rect style="fill: none; fill-opacity:0; stroke-width: 1; stroke: #000000" x="50.7207" y="28.6292" width="57.9" height="20"/>
    <text font-size="12.7998" style="fill: #000000;text-anchor:start;font-family:monospace;font-style:normal;font-weight:normal" x="52.7207" y="43.6292">lottery</text>
  </g>
  <g>
    <rect style="fill: #ffcd99" x="613.005" y="392.379" width="303.9" height="28"/>
    <rect style="fill: none; fill-opacity:0; stroke-width: 1; stroke: #000000" x="613.005" y="392.379" width="303.9" height="28"/>
    <text font-size="16" style="fill: #000000;text-anchor:middle;font-family:sans-serif;font-style:normal;font-weight:700" x="764.955" y="411.379">SalesPointSecurityConfiguration</text>
  </g>
  <g>
    <rect style="fill: #ffcd99" x="81.9198" y="79.3146" width="241" height="28"/>
    <rect style="fill: none; fill-opacity:0; stroke-width: 1; stroke: #000000" x="81.9198" y="79.3146" width="241" height="28"/>
    <text font-size="16" style="fill: #000000;text-anchor:middle;font-family:sans-serif;font-style:normal;font-weight:700" x="202.42" y="98.3146">Lottery</text>
    <rect style="fill: #ffcd99" x="81.9198" y="107.315" width="241" height="20"/>
    <rect style="fill: none; fill-opacity:0; stroke-width: 1; stroke: #000000" x="81.9198" y="107.315" width="241" height="20"/>
    <text font-size="12.8" style="fill: #000000;text-anchor:start;font-family:monospace;font-style:normal;font-weight:normal" x="84.4198" y="121.315">-LOGIN_ROUTE: String = "login"</text>
    <line style="fill: none; fill-opacity:0; stroke-width: 1; stroke: #000000" x1="84.4198" y1="126.915" x2="315.42" y2="126.915"/>
    <rect style="fill: #ffcd99" x="81.9198" y="127.315" width="241" height="20"/>
    <rect style="fill: none; fill-opacity:0; stroke-width: 1; stroke: #000000" x="81.9198" y="127.315" width="241" height="20"/>
    <text font-size="12.8" style="fill: #000000;text-anchor:start;font-family:monospace;font-style:normal;font-weight:normal" x="84.4198" y="141.315">+main(args:String[]): void</text>
    <line style="fill: none; fill-opacity:0; stroke-width: 1; stroke: #000000" x1="84.4198" y1="142.915" x2="284.62" y2="142.915"/>
  </g>
  <g>
    <rect style="fill: #ffcd99" x="448.595" y="202.276" width="448.9" height="28"/>
    <rect style="fill: none; fill-opacity:0; stroke-width: 1; stroke: #000000" x="448.595" y="202.276" width="448.9" height="28"/>
    <text font-size="16" style="fill: #000000;text-anchor:middle;font-family:sans-serif;font-style:normal;font-weight:700" x="673.045" y="221.276">LotteryWebConfiguration</text>
    <rect style="fill: #ffcd99" x="448.595" y="230.276" width="448.9" height="8"/>
    <rect style="fill: none; fill-opacity:0; stroke-width: 1; stroke: #000000" x="448.595" y="230.276" width="448.9" height="8"/>
    <rect style="fill: #ffcd99" x="448.595" y="238.276" width="448.9" height="20"/>
    <rect style="fill: none; fill-opacity:0; stroke-width: 1; stroke: #000000" x="448.595" y="238.276" width="448.9" height="20"/>
    <text font-size="12.8" style="fill: #000000;text-anchor:start;font-family:monospace;font-style:normal;font-weight:normal" x="451.095" y="252.276">+addViewController(registry:ViewControllerRegistry): void</text>
  </g>
  <g>
    <rect style="fill: #ffcd99" x="447.406" y="89.301" width="279.5" height="28"/>
    <rect style="fill: none; fill-opacity:0; stroke-width: 1; stroke: #000000" x="447.406" y="89.301" width="279.5" height="28"/>
    <text font-size="16" style="fill: #000000;text-anchor:middle;font-family:sans-serif;font-style:normal;font-weight:700" x="587.156" y="108.301">WebSecurityConfiguration</text>
    <rect style="fill: #ffcd99" x="447.406" y="117.301" width="279.5" height="8"/>
    <rect style="fill: none; fill-opacity:0; stroke-width: 1; stroke: #000000" x="447.406" y="117.301" width="279.5" height="8"/>
    <rect style="fill: #ffcd99" x="447.406" y="125.301" width="279.5" height="20"/>
    <rect style="fill: none; fill-opacity:0; stroke-width: 1; stroke: #000000" x="447.406" y="125.301" width="279.5" height="20"/>
    <text font-size="12.8" style="fill: #000000;text-anchor:start;font-family:monospace;font-style:normal;font-weight:normal" x="449.906" y="139.301">+configure(http:HttpSecurity): void</text>
  </g>
  <g>
    <polyline style="fill: none; fill-opacity:0; stroke-width: 2; stroke: #000000" points="348.091,117.315 392.504,117.315 392.504,230.276 448.088,230.276 "/>
    <polygon style="fill: #ffffff" points="322.92,117.315 336.92,112.515 350.92,117.315 336.92,122.115 "/>
    <polygon style="fill: none; fill-opacity:0; stroke-width: 2; stroke: #000000" points="322.92,117.315 336.92,112.515 350.92,117.315 336.92,122.115 "/>
  </g>
  <g>
    <polyline style="fill: none; fill-opacity:0; stroke-width: 2; stroke: #000000" points="348.091,117.315 391.908,117.315 391.908,117.301 446.897,117.301 "/>
    <polygon style="fill: #ffffff" points="322.92,117.315 336.92,112.515 350.92,117.315 336.92,122.115 "/>
    <polygon style="fill: none; fill-opacity:0; stroke-width: 2; stroke: #000000" points="322.92,117.315 336.92,112.515 350.92,117.315 336.92,122.115 "/>
  </g>
  <g>
    <rect style="fill: #add8e6" x="51.9973" y="368.196" width="434.243" height="242.532"/>
    <rect style="fill: none; fill-opacity:0; stroke-width: 1; stroke: #000000" x="51.9973" y="368.196" width="434.243" height="242.532"/>
    <rect style="fill: #add8e6" x="51.9973" y="348.196" width="50.2" height="20"/>
    <rect style="fill: none; fill-opacity:0; stroke-width: 1; stroke: #000000" x="51.9973" y="348.196" width="50.2" height="20"/>
    <text font-size="12.7998" style="fill: #000000;text-anchor:start;font-family:monospace;font-style:normal;font-weight:normal" x="53.9973" y="363.196">Spring</text>
  </g>
  <g>
    <rect style="fill: #ffcd99" x="87.3149" y="398.65" width="171.35" height="28"/>
    <rect style="fill: none; fill-opacity:0; stroke-width: 1; stroke: #000000" x="87.3149" y="398.65" width="171.35" height="28"/>
    <text font-size="16" style="fill: #000000;text-anchor:middle;font-family:sans-serif;font-style:normal;font-weight:700" x="172.99" y="417.65">SpringApplication</text>
  </g>
  <g>
    <rect style="fill: #ffcd99" x="90.6785" y="450.786" width="219.6" height="28"/>
    <rect style="fill: none; fill-opacity:0; stroke-width: 1; stroke: #000000" x="90.6785" y="450.786" width="219.6" height="28"/>
    <text font-size="16" style="fill: #000000;text-anchor:middle;font-family:sans-serif;font-style:normal;font-weight:700" x="200.478" y="469.786">ViewControllerRegistry</text>
  </g>
  <g>
    <rect style="fill: #ffcd99" x="92.3603" y="507.967" width="124.9" height="28"/>
    <rect style="fill: none; fill-opacity:0; stroke-width: 1; stroke: #000000" x="92.3603" y="507.967" width="124.9" height="28"/>
    <text font-size="16" style="fill: #000000;text-anchor:middle;font-family:sans-serif;font-style:normal;font-weight:700" x="154.81" y="526.967">HttpSecurity</text>
  </g>
  <g>
    <rect style="fill: #90ee90" x="92.3603" y="560.102" width="181.9" height="28"/>
    <rect style="fill: none; fill-opacity:0; stroke-width: 1; stroke: #000000" x="92.3603" y="560.102" width="181.9" height="28"/>
    <text font-size="16" style="fill: #000000;text-anchor:middle;font-family:sans-serif;font-style:normal;font-weight:700" x="183.31" y="579.102">WebMvcConfigurer</text>
  </g>
  <g>
    <polyline style="fill: none; fill-opacity:0; stroke-width: 2; stroke-dasharray: 8; stroke: #000000" points="241.987,574.102 954.914,574.102 954.914,117.301 676.219,117.301 "/>
    <polygon style="fill: #ffffff" points="241.987,566.102 225.987,574.102 241.987,582.102 "/>
    <polygon style="fill: none; fill-opacity:0; stroke-width: 2; stroke: #000000" points="241.987,566.102 225.987,574.102 241.987,582.102 "/>
  </g>
  <g>
    <polyline style="fill: none; fill-opacity:0; stroke-width: 2; stroke: #000000" points="764.955,373.636 764.955,338.278 673.045,338.278 673.045,258.766 "/>
    <polygon style="fill: #ffffff" points="756.955,373.636 764.955,389.636 772.955,373.636 "/>
    <polygon style="fill: none; fill-opacity:0; stroke-width: 2; stroke: #000000" points="756.955,373.636 764.955,389.636 772.955,373.636 "/>
  </g>
  <g>
    <polyline style="fill: none; fill-opacity:0; stroke-width: 2; stroke-dasharray: 8; stroke: #000000" points="727.409,117.301 1031.41,117.301 1031.41,464.786 317.466,464.786 "/>
    <polyline style="fill: none; fill-opacity:0; stroke-width: 2; stroke: #000000" points="330.113,459.786 314.113,464.786 330.113,469.786 "/>
    <text font-size="12.7998" style="fill: #000000;text-anchor:start;font-family:monospace;font-style:normal;font-weight:normal" x="1033.41" y="291.043">&lt;&lt;use&gt;&gt;</text>
  </g>
  <g>
    <polyline style="fill: none; fill-opacity:0; stroke-width: 2; stroke-dasharray: 8; stroke: #000000" points="202.42,147.823 202.42,268.983 172.99,268.983 172.99,391.438 "/>
    <polyline style="fill: none; fill-opacity:0; stroke-width: 2; stroke: #000000" points="167.99,378.79 172.99,394.79 177.99,378.79 "/>
    <text font-size="12.7998" style="fill: #000000;text-anchor:middle;font-family:monospace;font-style:normal;font-weight:normal" x="187.705" y="268.983">&lt;&lt;use&gt;&gt;</text>
  </g>
  <g>
    <polyline style="fill: none; fill-opacity:0; stroke-width: 2; stroke-dasharray: 8; stroke: #000000" points="897.994,230.276 971.411,230.276 971.411,521.967 224.471,521.967 "/>
    <polyline style="fill: none; fill-opacity:0; stroke-width: 2; stroke: #000000" points="237.119,516.967 221.119,521.967 237.119,526.967 "/>
    <text font-size="12.7998" style="fill: #000000;text-anchor:start;font-family:monospace;font-style:normal;font-weight:normal" x="973.411" y="376.121">&lt;&lt;use&gt;&gt;</text>
  </g>
</svg>
