<?xml version="1.0" encoding="UTF-8" standalone="no"?>
<!DOCTYPE svg PUBLIC "-//W3C//DTD SVG 1.0//EN" "http://www.w3.org/TR/2001/PR-SVG-20010719/DTD/svg10.dtd">
<svg width="64cm" height="44cm" viewBox="-3 -21 1262 869" xmlns="http://www.w3.org/2000/svg" xmlns:xlink="http://www.w3.org/1999/xlink">
  <g>
    <rect style="fill: #ffffff" x="-2.10374" y="-0.39941" width="1260.09" height="847.195"/>
    <rect style="fill: none; fill-opacity:0; stroke-width: 2.6; stroke: #000000" x="-2.10374" y="-0.39941" width="1260.09" height="847.195"/>
    <rect style="fill: #ffffff" x="-2.10374" y="-20.3994" width="196.5" height="20"/>
    <rect style="fill: none; fill-opacity:0; stroke-width: 2.6; stroke: #000000" x="-2.10374" y="-20.3994" width="196.5" height="20"/>
    <text font-size="12.7998" style="fill: #000000;text-anchor:start;font-family:monospace;font-style:normal;font-weight:normal" x="-0.103738" y="-5.39941">package lottery.community</text>
  </g>
  <g>
    <rect style="fill: #add8e6" x="47.8962" y="47.6209" width="1154.93" height="608"/>
    <rect style="fill: none; fill-opacity:0; stroke-width: 2.4; stroke: #000000" x="47.8962" y="47.6209" width="1154.93" height="608"/>
    <rect style="fill: #add8e6" x="47.8962" y="27.6209" width="134.9" height="20"/>
    <rect style="fill: none; fill-opacity:0; stroke-width: 2.4; stroke: #000000" x="47.8962" y="27.6209" width="134.9" height="20"/>
    <text font-size="12.7998" style="fill: #000000;text-anchor:start;font-family:monospace;font-style:normal;font-weight:normal" x="49.8962" y="42.6209">lottery.community</text>
  </g>
  <g>
    <rect style="fill: #add8e6" x="50.5881" y="703.842" width="367.38" height="108.035"/>
    <rect style="fill: none; fill-opacity:0; stroke-width: 2.4; stroke: #000000" x="50.5881" y="703.842" width="367.38" height="108.035"/>
    <rect style="fill: #add8e6" x="50.5881" y="683.842" width="81" height="20"/>
    <rect style="fill: none; fill-opacity:0; stroke-width: 2.4; stroke: #000000" x="50.5881" y="683.842" width="81" height="20"/>
    <text font-size="12.7998" style="fill: #000000;text-anchor:start;font-family:monospace;font-style:normal;font-weight:normal" x="52.5881" y="698.842">Salespoint</text>
  </g>
  <g>
    <rect style="fill: #add8e6" x="465.754" y="707.046" width="683" height="107.223"/>
    <rect style="fill: none; fill-opacity:0; stroke-width: 2.4; stroke: #000000" x="465.754" y="707.046" width="683" height="107.223"/>
    <rect style="fill: #add8e6" x="465.754" y="687.046" width="50.2" height="20"/>
    <rect style="fill: none; fill-opacity:0; stroke-width: 2.4; stroke: #000000" x="465.754" y="687.046" width="50.2" height="20"/>
    <text font-size="12.7998" style="fill: #000000;text-anchor:start;font-family:monospace;font-style:normal;font-weight:normal" x="467.754" y="702.046">Spring</text>
  </g>
  <g>
    <rect style="fill: #ffcd99" x="83.4283" y="68.1235" width="341.1" height="28"/>
    <rect style="fill: none; fill-opacity:0; stroke-width: 2; stroke: #000000" x="83.4283" y="68.1235" width="341.1" height="28"/>
    <text font-size="16" style="fill: #000000;text-anchor:middle;font-family:sans-serif;font-style:normal;font-weight:700" x="253.978" y="87.1235">Community</text>
    <rect style="fill: #ffcd99" x="83.4283" y="96.1235" width="341.1" height="68"/>
    <rect style="fill: none; fill-opacity:0; stroke-width: 2; stroke: #000000" x="83.4283" y="96.1235" width="341.1" height="68"/>
    <text font-size="12.8" style="fill: #000000;text-anchor:start;font-family:monospace;font-style:normal;font-weight:normal" x="86.4283" y="110.123">-id: long</text>
    <text font-size="12.8" style="fill: #000000;text-anchor:start;font-family:monospace;font-style:normal;font-weight:normal" x="86.4283" y="126.123">-name: String</text>
    <text font-size="12.8" style="fill: #000000;text-anchor:start;font-family:monospace;font-style:normal;font-weight:normal" x="86.4283" y="142.123">-password: String</text>
    <text font-size="12.8" style="fill: #000000;text-anchor:start;font-family:monospace;font-style:normal;font-weight:normal" x="86.4283" y="158.123">-users: Set&lt;UserAccount&gt;</text>
    <rect style="fill: #ffcd99" x="83.4283" y="164.123" width="341.1" height="116"/>
    <rect style="fill: none; fill-opacity:0; stroke-width: 2; stroke: #000000" x="83.4283" y="164.123" width="341.1" height="116"/>
    <text font-size="12.8" style="fill: #000000;text-anchor:start;font-family:monospace;font-style:normal;font-weight:normal" x="86.4283" y="178.123">+Community(name:String,password:String)</text>
    <text font-size="12.8" style="fill: #000000;text-anchor:start;font-family:monospace;font-style:normal;font-weight:normal" x="86.4283" y="194.123">+getId(): long</text>
    <text font-size="12.8" style="fill: #000000;text-anchor:start;font-family:monospace;font-style:normal;font-weight:normal" x="86.4283" y="210.123">+getName(): String</text>
    <text font-size="12.8" style="fill: #000000;text-anchor:start;font-family:monospace;font-style:normal;font-weight:normal" x="86.4283" y="226.123">+getPassword(): String</text>
    <text font-size="12.8" style="fill: #000000;text-anchor:start;font-family:monospace;font-style:normal;font-weight:normal" x="86.4283" y="242.123">+getUsers(): Set&lt;UserAccount&gt;</text>
    <text font-size="12.8" style="fill: #000000;text-anchor:start;font-family:monospace;font-style:normal;font-weight:normal" x="86.4283" y="258.123">+addUser(user:UserAccount): void</text>
    <text font-size="12.8" style="fill: #000000;text-anchor:start;font-family:monospace;font-style:normal;font-weight:normal" x="86.4283" y="274.123">+userInCommunity(user:UserAccount): boolean</text>
  </g>
  <g>
    <rect style="fill: #ffcd99" x="719.338" y="80.0229" width="433.5" height="28"/>
    <rect style="fill: none; fill-opacity:0; stroke-width: 2; stroke: #000000" x="719.338" y="80.0229" width="433.5" height="28"/>
    <text font-size="16" style="fill: #000000;text-anchor:middle;font-family:sans-serif;font-style:normal;font-weight:700" x="936.088" y="99.0229">CommunityController</text>
    <rect style="fill: #ffcd99" x="719.338" y="108.023" width="433.5" height="8"/>
    <rect style="fill: none; fill-opacity:0; stroke-width: 2; stroke: #000000" x="719.338" y="108.023" width="433.5" height="8"/>
    <rect style="fill: #ffcd99" x="719.338" y="116.023" width="433.5" height="116"/>
    <rect style="fill: none; fill-opacity:0; stroke-width: 2; stroke: #000000" x="719.338" y="116.023" width="433.5" height="116"/>
    <text font-size="12.8" style="fill: #000000;text-anchor:start;font-family:monospace;font-style:normal;font-weight:normal" x="722.338" y="130.023">+CommunityController(management:CommunityMagament)</text>
    <text font-size="12.8" style="fill: #000000;text-anchor:start;font-family:monospace;font-style:normal;font-weight:normal" x="722.338" y="146.023">+createNew(form:RegistrationForm,result:Errors): String</text>
    <text font-size="12.8" style="fill: #000000;text-anchor:start;font-family:monospace;font-style:normal;font-weight:normal" x="722.338" y="162.023">+create(model:Model,form:RegistrationForm): String</text>
    <text font-size="12.8" style="fill: #000000;text-anchor:start;font-family:monospace;font-style:normal;font-weight:normal" x="722.338" y="178.023">+delete(communityID:long): void</text>
    <text font-size="12.8" style="fill: #000000;text-anchor:start;font-family:monospace;font-style:normal;font-weight:normal" x="722.338" y="194.023">+communities(model:Model): String</text>
    <text font-size="12.8" style="fill: #000000;text-anchor:start;font-family:monospace;font-style:normal;font-weight:normal" x="722.338" y="210.023">+join(communityID:long,userID:long): void</text>
    <text font-size="12.8" style="fill: #000000;text-anchor:start;font-family:monospace;font-style:normal;font-weight:normal" x="722.338" y="226.023">+kick(communityID:long,userID:long): void</text>
  </g>
  <g>
    <rect style="fill: #ffcd99" x="711.416" y="332.206" width="456.6" height="28"/>
    <rect style="fill: none; fill-opacity:0; stroke-width: 2; stroke: #000000" x="711.416" y="332.206" width="456.6" height="28"/>
    <text font-size="16" style="fill: #000000;text-anchor:middle;font-family:sans-serif;font-style:normal;font-weight:700" x="939.716" y="351.206">CommunityManagement</text>
    <rect style="fill: #ffcd99" x="711.416" y="360.206" width="456.6" height="8"/>
    <rect style="fill: none; fill-opacity:0; stroke-width: 2; stroke: #000000" x="711.416" y="360.206" width="456.6" height="8"/>
    <rect style="fill: #ffcd99" x="711.416" y="368.206" width="456.6" height="116"/>
    <rect style="fill: none; fill-opacity:0; stroke-width: 2; stroke: #000000" x="711.416" y="368.206" width="456.6" height="116"/>
    <text font-size="12.8" style="fill: #000000;text-anchor:start;font-family:monospace;font-style:normal;font-weight:normal" x="714.416" y="382.206">+CommunityManagement(communities:CommunityRepository)</text>
    <text font-size="12.8" style="fill: #000000;text-anchor:start;font-family:monospace;font-style:normal;font-weight:normal" x="714.416" y="398.206">+createCommunity(form:CreateForm): Community</text>
    <text font-size="12.8" style="fill: #000000;text-anchor:start;font-family:monospace;font-style:normal;font-weight:normal" x="714.416" y="414.206">+joinCommunity(community:Community,user:UserAccount): void</text>
    <text font-size="12.8" style="fill: #000000;text-anchor:start;font-family:monospace;font-style:normal;font-weight:normal" x="714.416" y="430.206">+findCommunityByForm(form:CreateForm): Community</text>
    <text font-size="12.8" style="fill: #000000;text-anchor:start;font-family:monospace;font-style:normal;font-weight:normal" x="714.416" y="446.206">+findPersonalCommunities(user:UserAccount): Set&lt;Community&gt;</text>
    <text font-size="12.8" style="fill: #000000;text-anchor:start;font-family:monospace;font-style:normal;font-weight:normal" x="714.416" y="462.206">+findJoinableCommunities(user:UserAccount): Set&lt;Community&gt;</text>
    <text font-size="12.8" style="fill: #000000;text-anchor:start;font-family:monospace;font-style:normal;font-weight:normal" x="714.416" y="478.206">+findAll(): Streamable&lt;Community&gt;</text>
  </g>
  <g>
    <rect style="fill: #ffcd99" x="90.8963" y="533.332" width="518.2" height="28"/>
    <rect style="fill: none; fill-opacity:0; stroke-width: 2; stroke: #000000" x="90.8963" y="533.332" width="518.2" height="28"/>
    <text font-size="16" style="fill: #000000;text-anchor:middle;font-family:sans-serif;font-style:normal;font-weight:700" x="349.996" y="552.332">CommunityDataInitializer</text>
    <rect style="fill: #ffcd99" x="90.8963" y="561.332" width="518.2" height="8"/>
    <rect style="fill: none; fill-opacity:0; stroke-width: 2; stroke: #000000" x="90.8963" y="561.332" width="518.2" height="8"/>
    <rect style="fill: #ffcd99" x="90.8963" y="569.332" width="518.2" height="36"/>
    <rect style="fill: none; fill-opacity:0; stroke-width: 2; stroke: #000000" x="90.8963" y="569.332" width="518.2" height="36"/>
    <text font-size="12.8" style="fill: #000000;text-anchor:start;font-family:monospace;font-style:normal;font-weight:normal" x="93.8963" y="583.332">+CommunityDataInitializer(communityRepository:CommunityRepository)</text>
    <text font-size="12.8" style="fill: #000000;text-anchor:start;font-family:monospace;font-style:normal;font-weight:normal" x="93.8963" y="599.332">+initialize(): void</text>
  </g>
  <g>
    <rect style="fill: #90ee90" x="82.1597" y="739.518" width="138.4" height="44"/>
    <rect style="fill: none; fill-opacity:0; stroke-width: 2; stroke: #000000" x="82.1597" y="739.518" width="138.4" height="44"/>
    <text font-size="12.8" style="fill: #000000;text-anchor:middle;font-family:monospace;font-style:normal;font-weight:normal" x="151.36" y="755.518">&lt;&lt;interface&gt;&gt;</text>
    <text font-size="16" style="fill: #000000;text-anchor:middle;font-family:sans-serif;font-style:normal;font-weight:700" x="151.36" y="774.518">DataInitializer</text>
  </g>
  <g>
    <rect style="fill: #ffcd99" x="259.015" y="741.234" width="124.1" height="28"/>
    <rect style="fill: none; fill-opacity:0; stroke-width: 2; stroke: #000000" x="259.015" y="741.234" width="124.1" height="28"/>
    <text font-size="16" style="fill: #000000;text-anchor:middle;font-family:sans-serif;font-style:normal;font-weight:700" x="321.065" y="760.234">UserAccount</text>
  </g>
  <g>
    <rect style="fill: #90ee90" x="839.695" y="746.644" width="110.1" height="44"/>
    <rect style="fill: none; fill-opacity:0; stroke-width: 2; stroke: #000000" x="839.695" y="746.644" width="110.1" height="44"/>
    <text font-size="12.8" style="fill: #000000;text-anchor:middle;font-family:monospace;font-style:normal;font-weight:normal" x="894.745" y="762.644">&lt;&lt;interface&gt;&gt;</text>
    <text font-size="16" style="fill: #000000;text-anchor:middle;font-family:sans-serif;font-style:normal;font-weight:700" x="894.745" y="781.644">Model</text>
  </g>
  <g>
    <rect style="fill: #90ee90" x="693.637" y="748.989" width="110.1" height="44"/>
    <rect style="fill: none; fill-opacity:0; stroke-width: 2; stroke: #000000" x="693.637" y="748.989" width="110.1" height="44"/>
    <text font-size="12.8" style="fill: #000000;text-anchor:middle;font-family:monospace;font-style:normal;font-weight:normal" x="748.687" y="764.989">&lt;&lt;interface&gt;&gt;</text>
    <text font-size="16" style="fill: #000000;text-anchor:middle;font-family:sans-serif;font-style:normal;font-weight:700" x="748.687" y="783.989">Errors</text>
  </g>
  <g>
    <rect style="fill: #90ee90" x="509.837" y="747.48" width="150.1" height="44"/>
    <rect style="fill: none; fill-opacity:0; stroke-width: 2; stroke: #000000" x="509.837" y="747.48" width="150.1" height="44"/>
    <text font-size="12.8" style="fill: #000000;text-anchor:middle;font-family:monospace;font-style:normal;font-weight:normal" x="584.887" y="763.48">&lt;&lt;interface&gt;&gt;</text>
    <text font-size="16" style="fill: #000000;text-anchor:middle;font-family:sans-serif;font-style:normal;font-weight:700" x="584.887" y="782.48">CrudRepository</text>
    <rect style="fill: #90ee90" x="613.937" y="717.48" width="54" height="36"/>
    <rect style="fill: none; fill-opacity:0; stroke-width: 2; stroke-dasharray: 6; stroke: #000000" x="613.937" y="717.48" width="54" height="36"/>
    <text font-size="12.8" style="fill: #000000;text-anchor:start;font-family:monospace;font-style:normal;font-weight:normal" x="619.937" y="731.48">T:</text>
    <text font-size="12.8" style="fill: #000000;text-anchor:start;font-family:monospace;font-style:normal;font-weight:normal" x="619.937" y="747.48">ID:</text>
  </g>
  <g>
    <rect style="fill: #90ee90" x="983.97" y="745.662" width="113.95" height="44"/>
    <rect style="fill: none; fill-opacity:0; stroke-width: 2; stroke: #000000" x="983.97" y="745.662" width="113.95" height="44"/>
    <text font-size="12.8" style="fill: #000000;text-anchor:middle;font-family:monospace;font-style:normal;font-weight:normal" x="1040.94" y="761.662">&lt;&lt;interface&gt;&gt;</text>
    <text font-size="16" style="fill: #000000;text-anchor:middle;font-family:sans-serif;font-style:normal;font-weight:700" x="1040.94" y="780.662">Streamable</text>
    <rect style="fill: #90ee90" x="1051.92" y="731.662" width="54" height="20"/>
    <rect style="fill: none; fill-opacity:0; stroke-width: 2; stroke-dasharray: 6; stroke: #000000" x="1051.92" y="731.662" width="54" height="20"/>
    <text font-size="12.8" style="fill: #000000;text-anchor:start;font-family:monospace;font-style:normal;font-weight:normal" x="1057.92" y="745.662">T:</text>
  </g>
  <g>
    <polyline style="fill: none; fill-opacity:0; stroke-width: 2; stroke-dasharray: 8; stroke: #000000" points="711.416,346.206 674.482,346.206 674.482,238.123 431.233,238.123 "/>
    <polyline style="fill: none; fill-opacity:0; stroke-width: 2; stroke: #000000" points="443.881,233.123 427.881,238.123 443.881,243.123 "/>
    <text font-size="12.7998" style="fill: #000000;text-anchor:start;font-family:monospace;font-style:normal;font-weight:normal" x="676.482" y="289.165">&lt;&lt;create&gt;&gt;</text>
  </g>
  <g>
    <rect style="fill: #90ee90" x="470.666" y="80.478" width="179.4" height="28"/>
    <rect style="fill: none; fill-opacity:0; stroke-width: 2; stroke: #000000" x="470.666" y="80.478" width="179.4" height="28"/>
    <text font-size="16" style="fill: #000000;text-anchor:middle;font-family:sans-serif;font-style:normal;font-weight:700" x="560.366" y="99.478">CreateForm</text>
    <rect style="fill: #90ee90" x="470.666" y="108.478" width="179.4" height="8"/>
    <rect style="fill: none; fill-opacity:0; stroke-width: 2; stroke: #000000" x="470.666" y="108.478" width="179.4" height="8"/>
    <rect style="fill: #90ee90" x="470.666" y="116.478" width="179.4" height="36"/>
    <rect style="fill: none; fill-opacity:0; stroke-width: 2; stroke: #000000" x="470.666" y="116.478" width="179.4" height="36"/>
    <text font-size="12.8" style="fill: #000000;text-anchor:start;font-family:monospace;font-style:normal;font-weight:normal" x="473.666" y="130.478">+getName(): String</text>
    <text font-size="12.8" style="fill: #000000;text-anchor:start;font-family:monospace;font-style:normal;font-weight:normal" x="473.666" y="146.478">+getPassword(): String</text>
  </g>
  <g>
    <rect style="fill: #90ee90" x="108.714" y="339.682" width="279.5" height="28"/>
    <rect style="fill: none; fill-opacity:0; stroke-width: 2; stroke: #000000" x="108.714" y="339.682" width="279.5" height="28"/>
    <text font-size="16" style="fill: #000000;text-anchor:middle;font-family:sans-serif;font-style:normal;font-weight:700" x="248.464" y="358.682">CommunityRepository</text>
    <rect style="fill: #90ee90" x="108.714" y="367.682" width="279.5" height="36"/>
    <rect style="fill: none; fill-opacity:0; stroke-width: 2; stroke: #000000" x="108.714" y="367.682" width="279.5" height="36"/>
    <text font-size="12.8" style="fill: #000000;text-anchor:start;font-family:monospace;font-style:normal;font-weight:normal" x="111.714" y="381.682">+findByName(name:String): Community</text>
    <text font-size="12.8" style="fill: #000000;text-anchor:start;font-family:monospace;font-style:normal;font-weight:normal" x="111.714" y="397.682">+findAll(): Streamable&lt;Community&gt;</text>
    <rect style="fill: #90ee90" x="342.214" y="309.682" width="92.7" height="36"/>
    <rect style="fill: none; fill-opacity:0; stroke-width: 2; stroke-dasharray: 6; stroke: #000000" x="342.214" y="309.682" width="92.7" height="36"/>
    <text font-size="12.8" style="fill: #000000;text-anchor:start;font-family:monospace;font-style:normal;font-weight:normal" x="348.214" y="323.682">T:Community</text>
    <text font-size="12.8" style="fill: #000000;text-anchor:start;font-family:monospace;font-style:normal;font-weight:normal" x="348.214" y="339.682">ID:Long</text>
  </g>
  <g>
    <polyline style="fill: none; fill-opacity:0; stroke-width: 2; stroke-dasharray: 8; stroke: #000000" points="719.338,190.023 560.366,190.023 560.366,159.183 "/>
    <polyline style="fill: none; fill-opacity:0; stroke-width: 2; stroke: #000000" points="565.366,171.831 560.366,155.831 555.366,171.831 "/>
    <text font-size="12.7998" style="fill: #000000;text-anchor:middle;font-family:monospace;font-style:normal;font-weight:normal" x="639.852" y="187.023">&lt;&lt;use&gt;&gt;</text>
  </g>
  <g>
    <polyline style="fill: none; fill-opacity:0; stroke-width: 2; stroke-dasharray: 8; stroke: #000000" points="1152.84,126.023 1218.38,126.023 1218.38,686.99 894.745,686.99 894.745,739.939 "/>
    <polyline style="fill: none; fill-opacity:0; stroke-width: 2; stroke: #000000" points="889.745,727.291 894.745,743.291 899.745,727.291 "/>
  </g>
  <g>
    <polyline style="fill: none; fill-opacity:0; stroke-width: 2; stroke-dasharray: 8; stroke: #000000" points="1152.84,126.023 1218.38,126.023 1218.38,686.99 748.687,686.99 748.687,742.284 "/>
    <polyline style="fill: none; fill-opacity:0; stroke-width: 2; stroke: #000000" points="743.687,729.636 748.687,745.636 753.687,729.636 "/>
  </g>
  <g>
    <polyline style="fill: none; fill-opacity:0; stroke-width: 2; stroke-dasharray: 8; stroke: #000000" points="1168.02,378.206 1183.03,378.206 1183.03,767.662 1104.62,767.662 "/>
    <polyline style="fill: none; fill-opacity:0; stroke-width: 2; stroke: #000000" points="1117.27,762.662 1101.27,767.662 1117.27,772.662 "/>
  </g>
  <g>
    <polyline style="fill: none; fill-opacity:0; stroke-width: 2; stroke: #000000" points="349.996,507.152 349.996,461.002 108.714,461.002 108.714,403.682 "/>
    <polygon style="fill: #ffffff" points="349.996,532.323 345.196,518.323 349.996,504.323 354.796,518.323 "/>
    <polygon style="fill: none; fill-opacity:0; stroke-width: 2; stroke: #000000" points="349.996,532.323 345.196,518.323 349.996,504.323 354.796,518.323 "/>
    <text font-size="12.7998" style="fill: #000000;text-anchor:start;font-family:monospace;font-style:normal;font-weight:normal" x="112.714" y="415.682"> -communityManagement</text>
    <text font-size="12.7998" style="fill: #000000;text-anchor:start;font-family:monospace;font-style:normal;font-weight:normal" x="112.714" y="431.682">1</text>
  </g>
  <g>
    <polyline style="fill: none; fill-opacity:0; stroke-width: 2; stroke: #000000" points="686.244,378.206 542.815,378.206 542.815,377.682 388.214,377.682 "/>
    <polygon style="fill: #ffffff" points="711.416,378.206 697.416,383.006 683.416,378.206 697.416,373.406 "/>
    <polygon style="fill: none; fill-opacity:0; stroke-width: 2; stroke: #000000" points="711.416,378.206 697.416,383.006 683.416,378.206 697.416,373.406 "/>
    <text font-size="12.7998" style="fill: #000000;text-anchor:start;font-family:monospace;font-style:normal;font-weight:normal" x="392.214" y="374.682"> -communities</text>
    <text font-size="12.7998" style="fill: #000000;text-anchor:start;font-family:monospace;font-style:normal;font-weight:normal" x="392.214" y="390.682">1</text>
  </g>
  <g>
    <polyline style="fill: none; fill-opacity:0; stroke-width: 2; stroke: #000000" points="936.088,258.204 936.088,289.114 939.716,289.114 939.716,331.197 "/>
    <polygon style="fill: #ffffff" points="936.088,233.032 940.888,247.032 936.088,261.032 931.288,247.032 "/>
    <polygon style="fill: none; fill-opacity:0; stroke-width: 2; stroke: #000000" points="936.088,233.032 940.888,247.032 936.088,261.032 931.288,247.032 "/>
    <text font-size="12.7998" style="fill: #000000;text-anchor:start;font-family:monospace;font-style:normal;font-weight:normal" x="943.716" y="311.197"> -management</text>
    <text font-size="12.7998" style="fill: #000000;text-anchor:start;font-family:monospace;font-style:normal;font-weight:normal" x="943.716" y="327.197">1</text>
  </g>
  <g>
    <polyline style="fill: none; fill-opacity:0; stroke-width: 2; stroke: #000000" points="584.887,729.244 584.887,632.668 625.295,632.668 625.295,393.682 388.214,393.682 "/>
    <polygon style="fill: #ffffff" points="576.887,729.244 584.887,745.244 592.887,729.244 "/>
    <polygon style="fill: none; fill-opacity:0; stroke-width: 2; stroke: #000000" points="576.887,729.244 584.887,745.244 592.887,729.244 "/>
    <text font-size="12.7998" style="fill: #000000;text-anchor:middle;font-family:monospace;font-style:normal;font-weight:normal" x="605.091" y="629.668">&lt;&lt;bind&gt;&gt;</text>
    <text font-size="12.7998" style="fill: #000000;text-anchor:middle;font-family:monospace;font-style:normal;font-weight:normal" x="605.091" y="645.668">&lt;T-&gt;Community, ID-&gt;Long&gt;</text>
  </g>
  <g>
    <polyline style="fill: none; fill-opacity:0; stroke-width: 2; stroke-dasharray: 8; stroke: #000000" points="63.9236,761.518 32.3944,761.518 32.3944,547.332 90.8963,547.332 "/>
    <polygon style="fill: #ffffff" points="63.9236,769.518 79.9236,761.518 63.9236,753.518 "/>
    <polygon style="fill: none; fill-opacity:0; stroke-width: 2; stroke: #000000" points="63.9236,769.518 79.9236,761.518 63.9236,753.518 "/>
  </g>
  <g>
    <polyline style="fill: none; fill-opacity:0; stroke-width: 2; stroke-dasharray: 8; stroke: #000000" points="939.716,485.214 939.716,671.912 321.065,671.912 321.065,733.537 "/>
    <polyline style="fill: none; fill-opacity:0; stroke-width: 2; stroke: #000000" points="316.065,720.889 321.065,736.889 326.065,720.889 "/>
    <text font-size="12.7998" style="fill: #000000;text-anchor:middle;font-family:monospace;font-style:normal;font-weight:normal" x="630.39" y="671.912">&lt;&lt;use&gt;&gt;</text>
  </g>
  <g>
    <polyline style="fill: none; fill-opacity:0; stroke-width: 2; stroke-dasharray: 8; stroke: #000000" points="83.4283,154.123 20.8104,154.123 20.8104,673.758 321.065,673.758 321.065,733.521 "/>
    <polyline style="fill: none; fill-opacity:0; stroke-width: 2; stroke: #000000" points="316.065,720.873 321.065,736.873 326.065,720.873 "/>
    <text font-size="12.7998" style="fill: #000000;text-anchor:middle;font-family:monospace;font-style:normal;font-weight:normal" x="170.938" y="673.758">&lt;&lt;use&gt;&gt;</text>
  </g>
</svg>
