<?xml version="1.0" encoding="UTF-8" standalone="no"?><svg xmlns="http://www.w3.org/2000/svg" xmlns:xlink="http://www.w3.org/1999/xlink" contentScriptType="application/ecmascript" contentStyleType="text/css" height="611px" preserveAspectRatio="none" style="width:830px;height:611px;background:#FFFFFF;" version="1.1" viewBox="0 0 830 611" width="830px" zoomAndPan="magnify"><defs><filter height="300%" id="ffrktcsondud3" width="300%" x="-1" y="-1"><feGaussianBlur result="blurOut" stdDeviation="2.0"/><feColorMatrix in="blurOut" result="blurOut2" type="matrix" values="0 0 0 0 0 0 0 0 0 0 0 0 0 0 0 0 0 0 .4 0"/><feOffset dx="4.0" dy="4.0" in="blurOut2" result="blurOut3"/><feBlend in="SourceGraphic" in2="blurOut3" mode="normal"/></filter></defs><g><rect fill="#FFFFFF" filter="url(#ffrktcsondud3)" height="500.2578" style="stroke:#A80036;stroke-width:1.0;" width="10" x="24.5" y="50.2969"/><rect fill="#FFFFFF" filter="url(#ffrktcsondud3)" height="29.1328" style="stroke:#A80036;stroke-width:1.0;" width="10" x="223.5" y="71.4297"/><rect fill="#FFFFFF" filter="url(#ffrktcsondud3)" height="246.0625" style="stroke:#A80036;stroke-width:1.0;" width="10" x="223.5" y="129.6953"/><rect fill="#FFFFFF" filter="url(#ffrktcsondud3)" height="145.6641" style="stroke:#A80036;stroke-width:1.0;" width="10" x="223.5" y="404.8906"/><rect fill="#FFFFFF" filter="url(#ffrktcsondud3)" height="29.1328" style="stroke:#A80036;stroke-width:1.0;" width="10" x="430.5" y="158.8281"/><rect fill="#FFFFFF" filter="url(#ffrktcsondud3)" height="129.5313" style="stroke:#A80036;stroke-width:1.0;" width="10" x="430.5" y="217.0938"/><rect fill="#FFFFFF" filter="url(#ffrktcsondud3)" height="29.1328" style="stroke:#A80036;stroke-width:1.0;" width="10" x="430.5" y="434.0234"/><rect fill="#FFFFFF" filter="url(#ffrktcsondud3)" height="71.2656" style="stroke:#A80036;stroke-width:1.0;" width="10" x="629.5" y="246.2266"/><rect fill="#FFFFFF" filter="url(#ffrktcsondud3)" height="29.1328" style="stroke:#A80036;stroke-width:1.0;" width="10" x="782.5" y="492.2891"/><line style="stroke:#A80036;stroke-width:1.0;stroke-dasharray:5.0,5.0;" x1="29" x2="29" y1="40.2969" y2="568.5547"/><line style="stroke:#A80036;stroke-width:1.0;stroke-dasharray:5.0,5.0;" x1="228.5" x2="228.5" y1="40.2969" y2="568.5547"/><line style="stroke:#A80036;stroke-width:1.0;stroke-dasharray:5.0,5.0;" x1="435" x2="435" y1="40.2969" y2="568.5547"/><line style="stroke:#A80036;stroke-width:1.0;stroke-dasharray:5.0,5.0;" x1="634.5" x2="634.5" y1="40.2969" y2="568.5547"/><line style="stroke:#A80036;stroke-width:1.0;stroke-dasharray:5.0,5.0;" x1="787" x2="787" y1="40.2969" y2="568.5547"/><rect fill="#FEFECE" filter="url(#ffrktcsondud3)" height="30.2969" style="stroke:#A80036;stroke-width:1.5;" width="45" x="5" y="5"/><text fill="#000000" font-family="sans-serif" font-size="14" lengthAdjust="spacing" textLength="31" x="12" y="24.9951">User</text><rect fill="#FEFECE" filter="url(#ffrktcsondud3)" height="30.2969" style="stroke:#A80036;stroke-width:1.5;" width="45" x="5" y="567.5547"/><text fill="#000000" font-family="sans-serif" font-size="14" lengthAdjust="spacing" textLength="31" x="12" y="587.5498">User</text><rect fill="#FEFECE" filter="url(#ffrktcsondud3)" height="30.2969" style="stroke:#A80036;stroke-width:1.5;" width="118" x="167.5" y="5"/><text fill="#000000" font-family="sans-serif" font-size="14" lengthAdjust="spacing" textLength="104" x="174.5" y="24.9951">UserController</text><rect fill="#FEFECE" filter="url(#ffrktcsondud3)" height="30.2969" style="stroke:#A80036;stroke-width:1.5;" width="118" x="167.5" y="567.5547"/><text fill="#000000" font-family="sans-serif" font-size="14" lengthAdjust="spacing" textLength="104" x="174.5" y="587.5498">UserController</text><rect fill="#FEFECE" filter="url(#ffrktcsondud3)" height="30.2969" style="stroke:#A80036;stroke-width:1.5;" width="139" x="364" y="5"/><text fill="#000000" font-family="sans-serif" font-size="14" lengthAdjust="spacing" textLength="125" x="371" y="24.9951">UserManagement</text><rect fill="#FEFECE" filter="url(#ffrktcsondud3)" height="30.2969" style="stroke:#A80036;stroke-width:1.5;" width="139" x="364" y="567.5547"/><text fill="#000000" font-family="sans-serif" font-size="14" lengthAdjust="spacing" textLength="125" x="371" y="587.5498">UserManagement</text><rect fill="#FEFECE" filter="url(#ffrktcsondud3)" height="30.2969" style="stroke:#A80036;stroke-width:1.5;" width="90" x="587.5" y="5"/><text fill="#000000" font-family="sans-serif" font-size="14" lengthAdjust="spacing" textLength="76" x="594.5" y="24.9951">Salespoint</text><rect fill="#FEFECE" filter="url(#ffrktcsondud3)" height="30.2969" style="stroke:#A80036;stroke-width:1.5;" width="90" x="587.5" y="567.5547"/><text fill="#000000" font-family="sans-serif" font-size="14" lengthAdjust="spacing" textLength="76" x="594.5" y="587.5498">Salespoint</text><rect fill="#FEFECE" filter="url(#ffrktcsondud3)" height="30.2969" style="stroke:#A80036;stroke-width:1.5;" width="61" x="755" y="5"/><text fill="#000000" font-family="sans-serif" font-size="14" lengthAdjust="spacing" textLength="47" x="762" y="24.9951">Spring</text><rect fill="#FEFECE" filter="url(#ffrktcsondud3)" height="30.2969" style="stroke:#A80036;stroke-width:1.5;" width="61" x="755" y="567.5547"/><text fill="#000000" font-family="sans-serif" font-size="14" lengthAdjust="spacing" textLength="47" x="762" y="587.5498">Spring</text><rect fill="#FFFFFF" filter="url(#ffrktcsondud3)" height="500.2578" style="stroke:#A80036;stroke-width:1.0;" width="10" x="24.5" y="50.2969"/><rect fill="#FFFFFF" filter="url(#ffrktcsondud3)" height="29.1328" style="stroke:#A80036;stroke-width:1.0;" width="10" x="223.5" y="71.4297"/><rect fill="#FFFFFF" filter="url(#ffrktcsondud3)" height="246.0625" style="stroke:#A80036;stroke-width:1.0;" width="10" x="223.5" y="129.6953"/><rect fill="#FFFFFF" filter="url(#ffrktcsondud3)" height="145.6641" style="stroke:#A80036;stroke-width:1.0;" width="10" x="223.5" y="404.8906"/><rect fill="#FFFFFF" filter="url(#ffrktcsondud3)" height="29.1328" style="stroke:#A80036;stroke-width:1.0;" width="10" x="430.5" y="158.8281"/><rect fill="#FFFFFF" filter="url(#ffrktcsondud3)" height="129.5313" style="stroke:#A80036;stroke-width:1.0;" width="10" x="430.5" y="217.0938"/><rect fill="#FFFFFF" filter="url(#ffrktcsondud3)" height="29.1328" style="stroke:#A80036;stroke-width:1.0;" width="10" x="430.5" y="434.0234"/><rect fill="#FFFFFF" filter="url(#ffrktcsondud3)" height="71.2656" style="stroke:#A80036;stroke-width:1.0;" width="10" x="629.5" y="246.2266"/><rect fill="#FFFFFF" filter="url(#ffrktcsondud3)" height="29.1328" style="stroke:#A80036;stroke-width:1.0;" width="10" x="782.5" y="492.2891"/><polygon fill="#A80036" points="211.5,67.4297,221.5,71.4297,211.5,75.4297,215.5,71.4297" style="stroke:#A80036;stroke-width:1.0;"/><line style="stroke:#A80036;stroke-width:1.0;" x1="34.5" x2="217.5" y1="71.4297" y2="71.4297"/><text fill="#000000" font-family="sans-serif" font-size="13" font-weight="bold" lengthAdjust="spacing" textLength="9" x="41.5" y="66.3638">1</text><text fill="#000000" font-family="sans-serif" font-size="13" lengthAdjust="spacing" textLength="59" x="54.5" y="66.3638">register()</text><polygon fill="#A80036" points="45.5,96.5625,35.5,100.5625,45.5,104.5625,41.5,100.5625" style="stroke:#A80036;stroke-width:1.0;"/><line style="stroke:#A80036;stroke-width:1.0;stroke-dasharray:2.0,2.0;" x1="39.5" x2="227.5" y1="100.5625" y2="100.5625"/><text fill="#000000" font-family="sans-serif" font-size="13" font-weight="bold" lengthAdjust="spacing" textLength="9" x="51.5" y="95.4966">2</text><text fill="#000000" font-family="sans-serif" font-size="13" lengthAdjust="spacing" textLength="152" x="64.5" y="95.4966">Template: register.html</text><polygon fill="#A80036" points="211.5,125.6953,221.5,129.6953,211.5,133.6953,215.5,129.6953" style="stroke:#A80036;stroke-width:1.0;"/><line style="stroke:#A80036;stroke-width:1.0;" x1="34.5" x2="217.5" y1="129.6953" y2="129.6953"/><text fill="#000000" font-family="sans-serif" font-size="13" font-weight="bold" lengthAdjust="spacing" textLength="8" x="41.5" y="124.6294">3</text><text fill="#000000" font-family="sans-serif" font-size="13" lengthAdjust="spacing" textLength="59" x="53.5" y="124.6294">register()</text><polygon fill="#A80036" points="418.5,154.8281,428.5,158.8281,418.5,162.8281,422.5,158.8281" style="stroke:#A80036;stroke-width:1.0;"/><line style="stroke:#A80036;stroke-width:1.0;" x1="233.5" x2="424.5" y1="158.8281" y2="158.8281"/><text fill="#000000" font-family="sans-serif" font-size="13" font-weight="bold" lengthAdjust="spacing" textLength="9" x="240.5" y="153.7622">4</text><text fill="#000000" font-family="sans-serif" font-size="13" lengthAdjust="spacing" textLength="165" x="253.5" y="153.7622">validate RegistrationForm</text><polygon fill="#A80036" points="244.5,183.9609,234.5,187.9609,244.5,191.9609,240.5,187.9609" style="stroke:#A80036;stroke-width:1.0;"/><line style="stroke:#A80036;stroke-width:1.0;stroke-dasharray:2.0,2.0;" x1="238.5" x2="434.5" y1="187.9609" y2="187.9609"/><text fill="#000000" font-family="sans-serif" font-size="13" font-weight="bold" lengthAdjust="spacing" textLength="9" x="250.5" y="182.895">5</text><text fill="#000000" font-family="sans-serif" font-size="13" lengthAdjust="spacing" textLength="0" x="267.5" y="182.895"/><polygon fill="#A80036" points="418.5,213.0938,428.5,217.0938,418.5,221.0938,422.5,217.0938" style="stroke:#A80036;stroke-width:1.0;"/><line style="stroke:#A80036;stroke-width:1.0;" x1="233.5" x2="424.5" y1="217.0938" y2="217.0938"/><text fill="#000000" font-family="sans-serif" font-size="13" font-weight="bold" lengthAdjust="spacing" textLength="9" x="240.5" y="212.0278">6</text><text fill="#000000" font-family="sans-serif" font-size="13" lengthAdjust="spacing" textLength="80" x="253.5" y="212.0278">createUser()</text><polygon fill="#A80036" points="617.5,242.2266,627.5,246.2266,617.5,250.2266,621.5,246.2266" style="stroke:#A80036;stroke-width:1.0;"/><line style="stroke:#A80036;stroke-width:1.0;" x1="440.5" x2="623.5" y1="246.2266" y2="246.2266"/><text fill="#000000" font-family="sans-serif" font-size="13" font-weight="bold" lengthAdjust="spacing" textLength="9" x="447.5" y="241.1606">7</text><text fill="#000000" font-family="sans-serif" font-size="13" lengthAdjust="spacing" textLength="157" x="460.5" y="241.1606">create new UserAccount</text><line style="stroke:#A80036;stroke-width:1.0;" x1="639.5" x2="681.5" y1="275.3594" y2="275.3594"/><line style="stroke:#A80036;stroke-width:1.0;" x1="681.5" x2="681.5" y1="275.3594" y2="288.3594"/><line style="stroke:#A80036;stroke-width:1.0;" x1="640.5" x2="681.5" y1="288.3594" y2="288.3594"/><polygon fill="#A80036" points="650.5,284.3594,640.5,288.3594,650.5,292.3594,646.5,288.3594" style="stroke:#A80036;stroke-width:1.0;"/><text fill="#000000" font-family="sans-serif" font-size="13" font-weight="bold" lengthAdjust="spacing" textLength="9" x="646.5" y="270.2935">8</text><text fill="#000000" font-family="sans-serif" font-size="13" lengthAdjust="spacing" textLength="116" x="659.5" y="270.2935">save UserAccount</text><polygon fill="#A80036" points="451.5,313.4922,441.5,317.4922,451.5,321.4922,447.5,317.4922" style="stroke:#A80036;stroke-width:1.0;"/><line style="stroke:#A80036;stroke-width:1.0;stroke-dasharray:2.0,2.0;" x1="445.5" x2="633.5" y1="317.4922" y2="317.4922"/><text fill="#000000" font-family="sans-serif" font-size="13" font-weight="bold" lengthAdjust="spacing" textLength="9" x="457.5" y="312.4263">9</text><text fill="#000000" font-family="sans-serif" font-size="13" lengthAdjust="spacing" textLength="0" x="474.5" y="312.4263"/><polygon fill="#A80036" points="244.5,342.625,234.5,346.625,244.5,350.625,240.5,346.625" style="stroke:#A80036;stroke-width:1.0;"/><line style="stroke:#A80036;stroke-width:1.0;stroke-dasharray:2.0,2.0;" x1="238.5" x2="434.5" y1="346.625" y2="346.625"/><text fill="#000000" font-family="sans-serif" font-size="13" font-weight="bold" lengthAdjust="spacing" textLength="19" x="250.5" y="341.5591">10</text><text fill="#000000" font-family="sans-serif" font-size="13" lengthAdjust="spacing" textLength="0" x="277.5" y="341.5591"/><polygon fill="#A80036" points="45.5,371.7578,35.5,375.7578,45.5,379.7578,41.5,375.7578" style="stroke:#A80036;stroke-width:1.0;"/><line style="stroke:#A80036;stroke-width:1.0;stroke-dasharray:2.0,2.0;" x1="39.5" x2="227.5" y1="375.7578" y2="375.7578"/><text fill="#000000" font-family="sans-serif" font-size="13" font-weight="bold" lengthAdjust="spacing" textLength="18" x="51.5" y="370.6919">11</text><text fill="#000000" font-family="sans-serif" font-size="13" lengthAdjust="spacing" textLength="133" x="73.5" y="370.6919">Template: login.html</text><polygon fill="#A80036" points="211.5,400.8906,221.5,404.8906,211.5,408.8906,215.5,404.8906" style="stroke:#A80036;stroke-width:1.0;"/><line style="stroke:#A80036;stroke-width:1.0;" x1="34.5" x2="217.5" y1="404.8906" y2="404.8906"/><text fill="#000000" font-family="sans-serif" font-size="13" font-weight="bold" lengthAdjust="spacing" textLength="18" x="41.5" y="399.8247">12</text><text fill="#000000" font-family="sans-serif" font-size="13" lengthAdjust="spacing" textLength="40" x="63.5" y="399.8247">login()</text><polygon fill="#A80036" points="418.5,430.0234,428.5,434.0234,418.5,438.0234,422.5,434.0234" style="stroke:#A80036;stroke-width:1.0;"/><line style="stroke:#A80036;stroke-width:1.0;" x1="233.5" x2="424.5" y1="434.0234" y2="434.0234"/><text fill="#000000" font-family="sans-serif" font-size="13" font-weight="bold" lengthAdjust="spacing" textLength="17" x="240.5" y="428.9575">13</text><text fill="#000000" font-family="sans-serif" font-size="13" lengthAdjust="spacing" textLength="87" x="261.5" y="428.9575">validate input</text><polygon fill="#A80036" points="244.5,459.1563,234.5,463.1563,244.5,467.1563,240.5,463.1563" style="stroke:#A80036;stroke-width:1.0;"/><line style="stroke:#A80036;stroke-width:1.0;stroke-dasharray:2.0,2.0;" x1="238.5" x2="434.5" y1="463.1563" y2="463.1563"/><text fill="#000000" font-family="sans-serif" font-size="13" font-weight="bold" lengthAdjust="spacing" textLength="18" x="250.5" y="458.0903">14</text><text fill="#000000" font-family="sans-serif" font-size="13" lengthAdjust="spacing" textLength="0" x="276.5" y="458.0903"/><polygon fill="#A80036" points="770.5,488.2891,780.5,492.2891,770.5,496.2891,774.5,492.2891" style="stroke:#A80036;stroke-width:1.0;"/><line style="stroke:#A80036;stroke-width:1.0;" x1="233.5" x2="776.5" y1="492.2891" y2="492.2891"/><text fill="#000000" font-family="sans-serif" font-size="13" font-weight="bold" lengthAdjust="spacing" textLength="18" x="240.5" y="487.2231">15</text><text fill="#000000" font-family="sans-serif" font-size="13" lengthAdjust="spacing" textLength="115" x="262.5" y="487.2231">add User to Model</text><polygon fill="#A80036" points="244.5,517.4219,234.5,521.4219,244.5,525.4219,240.5,521.4219" style="stroke:#A80036;stroke-width:1.0;"/><line style="stroke:#A80036;stroke-width:1.0;stroke-dasharray:2.0,2.0;" x1="238.5" x2="786.5" y1="521.4219" y2="521.4219"/><text fill="#000000" font-family="sans-serif" font-size="13" font-weight="bold" lengthAdjust="spacing" textLength="18" x="250.5" y="516.356">16</text><text fill="#000000" font-family="sans-serif" font-size="13" lengthAdjust="spacing" textLength="0" x="276.5" y="516.356"/><polygon fill="#A80036" points="40.5,546.5547,30.5,550.5547,40.5,554.5547,36.5,550.5547" style="stroke:#A80036;stroke-width:1.0;"/><line style="stroke:#A80036;stroke-width:1.0;stroke-dasharray:2.0,2.0;" x1="34.5" x2="227.5" y1="550.5547" y2="550.5547"/><text fill="#000000" font-family="sans-serif" font-size="13" font-weight="bold" lengthAdjust="spacing" textLength="18" x="46.5" y="545.4888">17</text><text fill="#000000" font-family="sans-serif" font-size="13" lengthAdjust="spacing" textLength="140" x="68.5" y="545.4888">Template: home.html</text><!--MD5=[b036004ae6a00135152d391eed2fd8d7]
@startuml
participant User order 1
participant UserController order 2
participant UserManagement order 3
participant Salespoint order 4
participant Spring order 5

autonumber

activate User
User -> UserController : register()
activate UserController
User <- - UserController : Template: register.html
deactivate UserController

User -> UserController : register()
activate UserController

UserController -> UserManagement: validate RegistrationForm
activate UserManagement
UserManagement - -> UserController
deactivate UserManagement

UserController -> UserManagement : createUser()
activate UserManagement
UserManagement -> Salespoint : create new UserAccount
activate Salespoint
Salespoint -> Salespoint : save UserAccount
Salespoint  - -> UserManagement
deactivate Salespoint
UserManagement  - -> UserController :
deactivate UserManagement

UserController - -> User : Template: login.html
deactivate UserController

User -> UserController : login()
activate UserController

UserController -> UserManagement: validate input
activate UserManagement
UserManagement - -> UserController
deactivate UserManagement

UserController -> Spring : add User to Model
activate Spring
Spring - -> UserController
deactivate Spring

UserController - -> User : Template: home.html
deactivate UserController

deactivate User
@enduml

PlantUML version 1.2022.1beta4(Unknown compile time)
(GPL source distribution)
Java Runtime: Java(TM) SE Runtime Environment
JVM: Java HotSpot(TM) 64-Bit Server VM
Default Encoding: UTF-8
Language: en
Country: US
--></g></svg>