<?xml version="1.0" encoding="UTF-8" standalone="no"?><svg xmlns="http://www.w3.org/2000/svg" xmlns:xlink="http://www.w3.org/1999/xlink" contentScriptType="application/ecmascript" contentStyleType="text/css" height="955px" preserveAspectRatio="none" style="width:969px;height:955px;background:#FFFFFF;" version="1.1" viewBox="0 0 969 955" width="969px" zoomAndPan="magnify"><defs><filter height="300%" id="f1ncm0u6bpi8b6" width="300%" x="-1" y="-1"><feGaussianBlur result="blurOut" stdDeviation="2.0"/><feColorMatrix in="blurOut" result="blurOut2" type="matrix" values="0 0 0 0 0 0 0 0 0 0 0 0 0 0 0 0 0 0 .4 0"/><feOffset dx="4.0" dy="4.0" in="blurOut2" result="blurOut3"/><feBlend in="SourceGraphic" in2="blurOut3" mode="normal"/></filter></defs><g><rect fill="#FFFFFF" filter="url(#f1ncm0u6bpi8b6)" height="843.5859" style="stroke:#A80036;stroke-width:1.0;" width="10" x="24.5" y="50.2969"/><rect fill="#FFFFFF" filter="url(#f1ncm0u6bpi8b6)" height="29.1328" style="stroke:#A80036;stroke-width:1.0;" width="10" x="282.5" y="71.4297"/><rect fill="#FFFFFF" filter="url(#f1ncm0u6bpi8b6)" height="87.3984" style="stroke:#A80036;stroke-width:1.0;" width="10" x="282.5" y="129.6953"/><rect fill="#FFFFFF" filter="url(#f1ncm0u6bpi8b6)" height="187.7969" style="stroke:#A80036;stroke-width:1.0;" width="10" x="282.5" y="246.2266"/><rect fill="#FFFFFF" filter="url(#f1ncm0u6bpi8b6)" height="388.5938" style="stroke:#A80036;stroke-width:1.0;" width="10" x="282.5" y="505.2891"/><rect fill="#FFFFFF" filter="url(#f1ncm0u6bpi8b6)" height="71.2656" style="stroke:#A80036;stroke-width:1.0;" width="10" x="449" y="275.3594"/><rect fill="#FFFFFF" filter="url(#f1ncm0u6bpi8b6)" height="129.5313" style="stroke:#A80036;stroke-width:1.0;" width="10" x="449" y="676.9531"/><rect fill="#FFFFFF" filter="url(#f1ncm0u6bpi8b6)" height="29.1328" style="stroke:#A80036;stroke-width:1.0;" width="10" x="626" y="748.2188"/><rect fill="#FFFFFF" filter="url(#f1ncm0u6bpi8b6)" height="71.2656" style="stroke:#A80036;stroke-width:1.0;" width="10" x="795.5" y="576.5547"/><rect fill="#FFFFFF" filter="url(#f1ncm0u6bpi8b6)" height="29.1328" style="stroke:#A80036;stroke-width:1.0;" width="10" x="921.5" y="158.8281"/><rect fill="#FFFFFF" filter="url(#f1ncm0u6bpi8b6)" height="29.1328" style="stroke:#A80036;stroke-width:1.0;" width="10" x="921.5" y="375.7578"/><rect fill="#FFFFFF" filter="url(#f1ncm0u6bpi8b6)" height="29.1328" style="stroke:#A80036;stroke-width:1.0;" width="10" x="921.5" y="835.6172"/><line style="stroke:#A80036;stroke-width:1.0;stroke-dasharray:5.0,5.0;" x1="29" x2="29" y1="40.2969" y2="911.8828"/><line style="stroke:#A80036;stroke-width:1.0;stroke-dasharray:5.0,5.0;" x1="287.5" x2="287.5" y1="40.2969" y2="911.8828"/><line style="stroke:#A80036;stroke-width:1.0;stroke-dasharray:5.0,5.0;" x1="453.5" x2="453.5" y1="40.2969" y2="911.8828"/><line style="stroke:#A80036;stroke-width:1.0;stroke-dasharray:5.0,5.0;" x1="631" x2="631" y1="40.2969" y2="911.8828"/><line style="stroke:#A80036;stroke-width:1.0;stroke-dasharray:5.0,5.0;" x1="800" x2="800" y1="40.2969" y2="911.8828"/><line style="stroke:#A80036;stroke-width:1.0;stroke-dasharray:5.0,5.0;" x1="926" x2="926" y1="40.2969" y2="911.8828"/><rect fill="#FEFECE" filter="url(#f1ncm0u6bpi8b6)" height="30.2969" style="stroke:#A80036;stroke-width:1.5;" width="45" x="5" y="5"/><text fill="#000000" font-family="sans-serif" font-size="14" lengthAdjust="spacing" textLength="31" x="12" y="24.9951">User</text><rect fill="#FEFECE" filter="url(#f1ncm0u6bpi8b6)" height="30.2969" style="stroke:#A80036;stroke-width:1.5;" width="45" x="5" y="910.8828"/><text fill="#000000" font-family="sans-serif" font-size="14" lengthAdjust="spacing" textLength="31" x="12" y="930.8779">User</text><rect fill="#FEFECE" filter="url(#f1ncm0u6bpi8b6)" height="30.2969" style="stroke:#A80036;stroke-width:1.5;" width="142" x="214.5" y="5"/><text fill="#000000" font-family="sans-serif" font-size="14" lengthAdjust="spacing" textLength="128" x="221.5" y="24.9951">BettingController</text><rect fill="#FEFECE" filter="url(#f1ncm0u6bpi8b6)" height="30.2969" style="stroke:#A80036;stroke-width:1.5;" width="142" x="214.5" y="910.8828"/><text fill="#000000" font-family="sans-serif" font-size="14" lengthAdjust="spacing" textLength="128" x="221.5" y="930.8779">BettingController</text><rect fill="#FEFECE" filter="url(#f1ncm0u6bpi8b6)" height="30.2969" style="stroke:#A80036;stroke-width:1.5;" width="163" x="370.5" y="5"/><text fill="#000000" font-family="sans-serif" font-size="14" lengthAdjust="spacing" textLength="149" x="377.5" y="24.9951">BettingManagement</text><rect fill="#FEFECE" filter="url(#f1ncm0u6bpi8b6)" height="30.2969" style="stroke:#A80036;stroke-width:1.5;" width="163" x="370.5" y="910.8828"/><text fill="#000000" font-family="sans-serif" font-size="14" lengthAdjust="spacing" textLength="149" x="377.5" y="930.8779">BettingManagement</text><rect fill="#FEFECE" filter="url(#f1ncm0u6bpi8b6)" height="30.2969" style="stroke:#A80036;stroke-width:1.5;" width="148" x="555" y="5"/><text fill="#000000" font-family="sans-serif" font-size="14" lengthAdjust="spacing" textLength="134" x="562" y="24.9951">BettingRepository</text><rect fill="#FEFECE" filter="url(#f1ncm0u6bpi8b6)" height="30.2969" style="stroke:#A80036;stroke-width:1.5;" width="148" x="555" y="910.8828"/><text fill="#000000" font-family="sans-serif" font-size="14" lengthAdjust="spacing" textLength="134" x="562" y="930.8779">BettingRepository</text><rect fill="#FEFECE" filter="url(#f1ncm0u6bpi8b6)" height="30.2969" style="stroke:#A80036;stroke-width:1.5;" width="163" x="717" y="5"/><text fill="#000000" font-family="sans-serif" font-size="14" lengthAdjust="spacing" textLength="149" x="724" y="24.9951">FinanceManagement</text><rect fill="#FEFECE" filter="url(#f1ncm0u6bpi8b6)" height="30.2969" style="stroke:#A80036;stroke-width:1.5;" width="163" x="717" y="910.8828"/><text fill="#000000" font-family="sans-serif" font-size="14" lengthAdjust="spacing" textLength="149" x="724" y="930.8779">FinanceManagement</text><rect fill="#FEFECE" filter="url(#f1ncm0u6bpi8b6)" height="30.2969" style="stroke:#A80036;stroke-width:1.5;" width="61" x="894" y="5"/><text fill="#000000" font-family="sans-serif" font-size="14" lengthAdjust="spacing" textLength="47" x="901" y="24.9951">Spring</text><rect fill="#FEFECE" filter="url(#f1ncm0u6bpi8b6)" height="30.2969" style="stroke:#A80036;stroke-width:1.5;" width="61" x="894" y="910.8828"/><text fill="#000000" font-family="sans-serif" font-size="14" lengthAdjust="spacing" textLength="47" x="901" y="930.8779">Spring</text><rect fill="#FFFFFF" filter="url(#f1ncm0u6bpi8b6)" height="843.5859" style="stroke:#A80036;stroke-width:1.0;" width="10" x="24.5" y="50.2969"/><rect fill="#FFFFFF" filter="url(#f1ncm0u6bpi8b6)" height="29.1328" style="stroke:#A80036;stroke-width:1.0;" width="10" x="282.5" y="71.4297"/><rect fill="#FFFFFF" filter="url(#f1ncm0u6bpi8b6)" height="87.3984" style="stroke:#A80036;stroke-width:1.0;" width="10" x="282.5" y="129.6953"/><rect fill="#FFFFFF" filter="url(#f1ncm0u6bpi8b6)" height="187.7969" style="stroke:#A80036;stroke-width:1.0;" width="10" x="282.5" y="246.2266"/><rect fill="#FFFFFF" filter="url(#f1ncm0u6bpi8b6)" height="388.5938" style="stroke:#A80036;stroke-width:1.0;" width="10" x="282.5" y="505.2891"/><rect fill="#FFFFFF" filter="url(#f1ncm0u6bpi8b6)" height="71.2656" style="stroke:#A80036;stroke-width:1.0;" width="10" x="449" y="275.3594"/><rect fill="#FFFFFF" filter="url(#f1ncm0u6bpi8b6)" height="129.5313" style="stroke:#A80036;stroke-width:1.0;" width="10" x="449" y="676.9531"/><rect fill="#FFFFFF" filter="url(#f1ncm0u6bpi8b6)" height="29.1328" style="stroke:#A80036;stroke-width:1.0;" width="10" x="626" y="748.2188"/><rect fill="#FFFFFF" filter="url(#f1ncm0u6bpi8b6)" height="71.2656" style="stroke:#A80036;stroke-width:1.0;" width="10" x="795.5" y="576.5547"/><rect fill="#FFFFFF" filter="url(#f1ncm0u6bpi8b6)" height="29.1328" style="stroke:#A80036;stroke-width:1.0;" width="10" x="921.5" y="158.8281"/><rect fill="#FFFFFF" filter="url(#f1ncm0u6bpi8b6)" height="29.1328" style="stroke:#A80036;stroke-width:1.0;" width="10" x="921.5" y="375.7578"/><rect fill="#FFFFFF" filter="url(#f1ncm0u6bpi8b6)" height="29.1328" style="stroke:#A80036;stroke-width:1.0;" width="10" x="921.5" y="835.6172"/><polygon fill="#A80036" points="270.5,67.4297,280.5,71.4297,270.5,75.4297,274.5,71.4297" style="stroke:#A80036;stroke-width:1.0;"/><line style="stroke:#A80036;stroke-width:1.0;" x1="34.5" x2="276.5" y1="71.4297" y2="71.4297"/><text fill="#000000" font-family="sans-serif" font-size="13" font-weight="bold" lengthAdjust="spacing" textLength="9" x="41.5" y="66.3638">1</text><text fill="#000000" font-family="sans-serif" font-size="13" lengthAdjust="spacing" textLength="55" x="54.5" y="66.3638">betting()</text><polygon fill="#A80036" points="45.5,96.5625,35.5,100.5625,45.5,104.5625,41.5,100.5625" style="stroke:#A80036;stroke-width:1.0;"/><line style="stroke:#A80036;stroke-width:1.0;stroke-dasharray:2.0,2.0;" x1="39.5" x2="286.5" y1="100.5625" y2="100.5625"/><text fill="#000000" font-family="sans-serif" font-size="13" font-weight="bold" lengthAdjust="spacing" textLength="9" x="51.5" y="95.4966">2</text><text fill="#000000" font-family="sans-serif" font-size="13" lengthAdjust="spacing" textLength="148" x="64.5" y="95.4966">Template: betting.html</text><polygon fill="#A80036" points="270.5,125.6953,280.5,129.6953,270.5,133.6953,274.5,129.6953" style="stroke:#A80036;stroke-width:1.0;"/><line style="stroke:#A80036;stroke-width:1.0;" x1="34.5" x2="276.5" y1="129.6953" y2="129.6953"/><text fill="#000000" font-family="sans-serif" font-size="13" font-weight="bold" lengthAdjust="spacing" textLength="8" x="41.5" y="124.6294">3</text><text fill="#000000" font-family="sans-serif" font-size="13" lengthAdjust="spacing" textLength="60" x="53.5" y="124.6294">number()</text><polygon fill="#A80036" points="909.5,154.8281,919.5,158.8281,909.5,162.8281,913.5,158.8281" style="stroke:#A80036;stroke-width:1.0;"/><line style="stroke:#A80036;stroke-width:1.0;" x1="292.5" x2="915.5" y1="158.8281" y2="158.8281"/><text fill="#000000" font-family="sans-serif" font-size="13" font-weight="bold" lengthAdjust="spacing" textLength="9" x="299.5" y="153.7622">4</text><text fill="#000000" font-family="sans-serif" font-size="13" lengthAdjust="spacing" textLength="115" x="312.5" y="153.7622">add data to Model</text><polygon fill="#A80036" points="303.5,183.9609,293.5,187.9609,303.5,191.9609,299.5,187.9609" style="stroke:#A80036;stroke-width:1.0;"/><line style="stroke:#A80036;stroke-width:1.0;stroke-dasharray:2.0,2.0;" x1="297.5" x2="925.5" y1="187.9609" y2="187.9609"/><text fill="#000000" font-family="sans-serif" font-size="13" font-weight="bold" lengthAdjust="spacing" textLength="9" x="309.5" y="182.895">5</text><text fill="#000000" font-family="sans-serif" font-size="13" lengthAdjust="spacing" textLength="0" x="326.5" y="182.895"/><polygon fill="#A80036" points="45.5,213.0938,35.5,217.0938,45.5,221.0938,41.5,217.0938" style="stroke:#A80036;stroke-width:1.0;"/><line style="stroke:#A80036;stroke-width:1.0;stroke-dasharray:2.0,2.0;" x1="39.5" x2="286.5" y1="217.0938" y2="217.0938"/><text fill="#000000" font-family="sans-serif" font-size="13" font-weight="bold" lengthAdjust="spacing" textLength="9" x="51.5" y="212.0278">6</text><text fill="#000000" font-family="sans-serif" font-size="13" lengthAdjust="spacing" textLength="205" x="64.5" y="212.0278">Template: betting_number.html</text><polygon fill="#A80036" points="270.5,242.2266,280.5,246.2266,270.5,250.2266,274.5,246.2266" style="stroke:#A80036;stroke-width:1.0;"/><line style="stroke:#A80036;stroke-width:1.0;" x1="34.5" x2="276.5" y1="246.2266" y2="246.2266"/><text fill="#000000" font-family="sans-serif" font-size="13" font-weight="bold" lengthAdjust="spacing" textLength="9" x="41.5" y="241.1606">7</text><text fill="#000000" font-family="sans-serif" font-size="13" lengthAdjust="spacing" textLength="58" x="54.5" y="241.1606">football()</text><polygon fill="#A80036" points="437,271.3594,447,275.3594,437,279.3594,441,275.3594" style="stroke:#A80036;stroke-width:1.0;"/><line style="stroke:#A80036;stroke-width:1.0;" x1="292.5" x2="443" y1="275.3594" y2="275.3594"/><text fill="#000000" font-family="sans-serif" font-size="13" font-weight="bold" lengthAdjust="spacing" textLength="9" x="299.5" y="270.2935">8</text><text fill="#000000" font-family="sans-serif" font-size="13" lengthAdjust="spacing" textLength="81" x="312.5" y="270.2935">get matches</text><line style="stroke:#A80036;stroke-width:1.0;" x1="459" x2="501" y1="304.4922" y2="304.4922"/><line style="stroke:#A80036;stroke-width:1.0;" x1="501" x2="501" y1="304.4922" y2="317.4922"/><line style="stroke:#A80036;stroke-width:1.0;" x1="460" x2="501" y1="317.4922" y2="317.4922"/><polygon fill="#A80036" points="470,313.4922,460,317.4922,470,321.4922,466,317.4922" style="stroke:#A80036;stroke-width:1.0;"/><text fill="#000000" font-family="sans-serif" font-size="13" font-weight="bold" lengthAdjust="spacing" textLength="9" x="466" y="299.4263">9</text><text fill="#000000" font-family="sans-serif" font-size="13" lengthAdjust="spacing" textLength="140" x="479" y="299.4263">findDataByCategory()</text><polygon fill="#A80036" points="303.5,342.625,293.5,346.625,303.5,350.625,299.5,346.625" style="stroke:#A80036;stroke-width:1.0;"/><line style="stroke:#A80036;stroke-width:1.0;stroke-dasharray:2.0,2.0;" x1="297.5" x2="453" y1="346.625" y2="346.625"/><text fill="#000000" font-family="sans-serif" font-size="13" font-weight="bold" lengthAdjust="spacing" textLength="19" x="309.5" y="341.5591">10</text><text fill="#000000" font-family="sans-serif" font-size="13" lengthAdjust="spacing" textLength="0" x="336.5" y="341.5591"/><polygon fill="#A80036" points="909.5,371.7578,919.5,375.7578,909.5,379.7578,913.5,375.7578" style="stroke:#A80036;stroke-width:1.0;"/><line style="stroke:#A80036;stroke-width:1.0;" x1="292.5" x2="915.5" y1="375.7578" y2="375.7578"/><text fill="#000000" font-family="sans-serif" font-size="13" font-weight="bold" lengthAdjust="spacing" textLength="18" x="299.5" y="370.6919">11</text><text fill="#000000" font-family="sans-serif" font-size="13" lengthAdjust="spacing" textLength="142" x="321.5" y="370.6919">add matches to Model</text><polygon fill="#A80036" points="303.5,400.8906,293.5,404.8906,303.5,408.8906,299.5,404.8906" style="stroke:#A80036;stroke-width:1.0;"/><line style="stroke:#A80036;stroke-width:1.0;stroke-dasharray:2.0,2.0;" x1="297.5" x2="925.5" y1="404.8906" y2="404.8906"/><text fill="#000000" font-family="sans-serif" font-size="13" font-weight="bold" lengthAdjust="spacing" textLength="18" x="309.5" y="399.8247">12</text><text fill="#000000" font-family="sans-serif" font-size="13" lengthAdjust="spacing" textLength="0" x="335.5" y="399.8247"/><polygon fill="#A80036" points="45.5,430.0234,35.5,434.0234,45.5,438.0234,41.5,434.0234" style="stroke:#A80036;stroke-width:1.0;"/><line style="stroke:#A80036;stroke-width:1.0;stroke-dasharray:2.0,2.0;" x1="39.5" x2="286.5" y1="434.0234" y2="434.0234"/><text fill="#000000" font-family="sans-serif" font-size="13" font-weight="bold" lengthAdjust="spacing" textLength="17" x="51.5" y="428.9575">13</text><text fill="#000000" font-family="sans-serif" font-size="13" lengthAdjust="spacing" textLength="203" x="72.5" y="428.9575">Template: betting_football.html</text><line style="stroke:#A80036;stroke-width:1.0;stroke-dasharray:2.0,2.0;" x1="34.5" x2="76.5" y1="463.1563" y2="463.1563"/><line style="stroke:#A80036;stroke-width:1.0;stroke-dasharray:2.0,2.0;" x1="76.5" x2="76.5" y1="463.1563" y2="476.1563"/><line style="stroke:#A80036;stroke-width:1.0;stroke-dasharray:2.0,2.0;" x1="35.5" x2="76.5" y1="476.1563" y2="476.1563"/><polygon fill="#A80036" points="45.5,472.1563,35.5,476.1563,45.5,480.1563,41.5,476.1563" style="stroke:#A80036;stroke-width:1.0;"/><text fill="#000000" font-family="sans-serif" font-size="13" font-weight="bold" lengthAdjust="spacing" textLength="18" x="41.5" y="458.0903">14</text><text fill="#000000" font-family="sans-serif" font-size="13" lengthAdjust="spacing" textLength="49" x="63.5" y="458.0903">fill form</text><polygon fill="#A80036" points="270.5,501.2891,280.5,505.2891,270.5,509.2891,274.5,505.2891" style="stroke:#A80036;stroke-width:1.0;"/><line style="stroke:#A80036;stroke-width:1.0;" x1="34.5" x2="276.5" y1="505.2891" y2="505.2891"/><text fill="#000000" font-family="sans-serif" font-size="13" font-weight="bold" lengthAdjust="spacing" textLength="18" x="41.5" y="500.2231">15</text><text fill="#000000" font-family="sans-serif" font-size="13" lengthAdjust="spacing" textLength="55" x="63.5" y="500.2231">addBet()</text><line style="stroke:#A80036;stroke-width:1.0;" x1="292.5" x2="334.5" y1="534.4219" y2="534.4219"/><line style="stroke:#A80036;stroke-width:1.0;" x1="334.5" x2="334.5" y1="534.4219" y2="547.4219"/><line style="stroke:#A80036;stroke-width:1.0;" x1="293.5" x2="334.5" y1="547.4219" y2="547.4219"/><polygon fill="#A80036" points="303.5,543.4219,293.5,547.4219,303.5,551.4219,299.5,547.4219" style="stroke:#A80036;stroke-width:1.0;"/><text fill="#000000" font-family="sans-serif" font-size="13" font-weight="bold" lengthAdjust="spacing" textLength="18" x="299.5" y="529.356">16</text><text fill="#000000" font-family="sans-serif" font-size="13" lengthAdjust="spacing" textLength="87" x="321.5" y="529.356">validate input</text><polygon fill="#A80036" points="783.5,572.5547,793.5,576.5547,783.5,580.5547,787.5,576.5547" style="stroke:#A80036;stroke-width:1.0;"/><line style="stroke:#A80036;stroke-width:1.0;" x1="292.5" x2="789.5" y1="576.5547" y2="576.5547"/><text fill="#000000" font-family="sans-serif" font-size="13" font-weight="bold" lengthAdjust="spacing" textLength="18" x="299.5" y="571.4888">17</text><text fill="#000000" font-family="sans-serif" font-size="13" lengthAdjust="spacing" textLength="127" x="321.5" y="571.4888">create FinanceForm</text><line style="stroke:#A80036;stroke-width:1.0;" x1="805.5" x2="847.5" y1="605.6875" y2="605.6875"/><line style="stroke:#A80036;stroke-width:1.0;" x1="847.5" x2="847.5" y1="605.6875" y2="618.6875"/><line style="stroke:#A80036;stroke-width:1.0;" x1="806.5" x2="847.5" y1="618.6875" y2="618.6875"/><polygon fill="#A80036" points="816.5,614.6875,806.5,618.6875,816.5,622.6875,812.5,618.6875" style="stroke:#A80036;stroke-width:1.0;"/><text fill="#000000" font-family="sans-serif" font-size="13" font-weight="bold" lengthAdjust="spacing" textLength="18" x="812.5" y="600.6216">18</text><text fill="#000000" font-family="sans-serif" font-size="13" lengthAdjust="spacing" textLength="69" x="834.5" y="600.6216">withdraw()</text><polygon fill="#A80036" points="303.5,643.8203,293.5,647.8203,303.5,651.8203,299.5,647.8203" style="stroke:#A80036;stroke-width:1.0;"/><line style="stroke:#A80036;stroke-width:1.0;stroke-dasharray:2.0,2.0;" x1="297.5" x2="799.5" y1="647.8203" y2="647.8203"/><text fill="#000000" font-family="sans-serif" font-size="13" font-weight="bold" lengthAdjust="spacing" textLength="18" x="309.5" y="642.7544">19</text><text fill="#000000" font-family="sans-serif" font-size="13" lengthAdjust="spacing" textLength="60" x="331.5" y="642.7544">succesful</text><polygon fill="#A80036" points="437,672.9531,447,676.9531,437,680.9531,441,676.9531" style="stroke:#A80036;stroke-width:1.0;"/><line style="stroke:#A80036;stroke-width:1.0;" x1="292.5" x2="443" y1="676.9531" y2="676.9531"/><text fill="#000000" font-family="sans-serif" font-size="13" font-weight="bold" lengthAdjust="spacing" textLength="19" x="299.5" y="671.8872">20</text><text fill="#000000" font-family="sans-serif" font-size="13" lengthAdjust="spacing" textLength="66" x="322.5" y="671.8872">create bet</text><line style="stroke:#A80036;stroke-width:1.0;" x1="459" x2="501" y1="706.0859" y2="706.0859"/><line style="stroke:#A80036;stroke-width:1.0;" x1="501" x2="501" y1="706.0859" y2="719.0859"/><line style="stroke:#A80036;stroke-width:1.0;" x1="460" x2="501" y1="719.0859" y2="719.0859"/><polygon fill="#A80036" points="470,715.0859,460,719.0859,470,723.0859,466,719.0859" style="stroke:#A80036;stroke-width:1.0;"/><text fill="#000000" font-family="sans-serif" font-size="13" font-weight="bold" lengthAdjust="spacing" textLength="18" x="466" y="701.02">21</text><text fill="#000000" font-family="sans-serif" font-size="13" lengthAdjust="spacing" textLength="72" x="488" y="701.02">createBet()</text><polygon fill="#A80036" points="614,744.2188,624,748.2188,614,752.2188,618,748.2188" style="stroke:#A80036;stroke-width:1.0;"/><line style="stroke:#A80036;stroke-width:1.0;" x1="459" x2="620" y1="748.2188" y2="748.2188"/><text fill="#000000" font-family="sans-serif" font-size="13" font-weight="bold" lengthAdjust="spacing" textLength="18" x="466" y="743.1528">22</text><text fill="#000000" font-family="sans-serif" font-size="13" lengthAdjust="spacing" textLength="62" x="488" y="743.1528">saveBet()</text><polygon fill="#A80036" points="470,773.3516,460,777.3516,470,781.3516,466,777.3516" style="stroke:#A80036;stroke-width:1.0;"/><line style="stroke:#A80036;stroke-width:1.0;stroke-dasharray:2.0,2.0;" x1="464" x2="630" y1="777.3516" y2="777.3516"/><text fill="#000000" font-family="sans-serif" font-size="13" font-weight="bold" lengthAdjust="spacing" textLength="17" x="476" y="772.2856">23</text><text fill="#000000" font-family="sans-serif" font-size="13" lengthAdjust="spacing" textLength="0" x="501" y="772.2856"/><polygon fill="#A80036" points="303.5,802.4844,293.5,806.4844,303.5,810.4844,299.5,806.4844" style="stroke:#A80036;stroke-width:1.0;"/><line style="stroke:#A80036;stroke-width:1.0;stroke-dasharray:2.0,2.0;" x1="297.5" x2="453" y1="806.4844" y2="806.4844"/><text fill="#000000" font-family="sans-serif" font-size="13" font-weight="bold" lengthAdjust="spacing" textLength="18" x="309.5" y="801.4185">24</text><text fill="#000000" font-family="sans-serif" font-size="13" lengthAdjust="spacing" textLength="0" x="335.5" y="801.4185"/><polygon fill="#A80036" points="909.5,831.6172,919.5,835.6172,909.5,839.6172,913.5,835.6172" style="stroke:#A80036;stroke-width:1.0;"/><line style="stroke:#A80036;stroke-width:1.0;" x1="292.5" x2="915.5" y1="835.6172" y2="835.6172"/><text fill="#000000" font-family="sans-serif" font-size="13" font-weight="bold" lengthAdjust="spacing" textLength="18" x="299.5" y="830.5513">25</text><text fill="#000000" font-family="sans-serif" font-size="13" lengthAdjust="spacing" textLength="115" x="321.5" y="830.5513">add data to Model</text><polygon fill="#A80036" points="303.5,860.75,293.5,864.75,303.5,868.75,299.5,864.75" style="stroke:#A80036;stroke-width:1.0;"/><line style="stroke:#A80036;stroke-width:1.0;stroke-dasharray:2.0,2.0;" x1="297.5" x2="925.5" y1="864.75" y2="864.75"/><text fill="#000000" font-family="sans-serif" font-size="13" font-weight="bold" lengthAdjust="spacing" textLength="18" x="309.5" y="859.6841">26</text><text fill="#000000" font-family="sans-serif" font-size="13" lengthAdjust="spacing" textLength="0" x="335.5" y="859.6841"/><polygon fill="#A80036" points="40.5,889.8828,30.5,893.8828,40.5,897.8828,36.5,893.8828" style="stroke:#A80036;stroke-width:1.0;"/><line style="stroke:#A80036;stroke-width:1.0;stroke-dasharray:2.0,2.0;" x1="34.5" x2="286.5" y1="893.8828" y2="893.8828"/><text fill="#000000" font-family="sans-serif" font-size="13" font-weight="bold" lengthAdjust="spacing" textLength="18" x="46.5" y="888.8169">27</text><text fill="#000000" font-family="sans-serif" font-size="13" lengthAdjust="spacing" textLength="140" x="68.5" y="888.8169">Template: home.html</text><!--MD5=[57edc50741ec252eeadad75be9e7a3d3]
@startuml
participant User order 1
participant BettingController order 2
participant BettingManagement order 3
participant BettingRepository order 4
participant FinanceManagement order 5
participant FinanceManagement order 6
participant Spring order 7

autonumber

activate User

User -> BettingController : betting()
activate BettingController 
BettingController - -> User: Template: betting.html
deactivate BettingController 


User -> BettingController: number()
activate BettingController

BettingController -> Spring: add data to Model
activate Spring
Spring - -> BettingController
deactivate Spring

BettingController - -> User: Template: betting_number.html
deactivate BettingController 

User -> BettingController: football()
activate BettingController

BettingController -> BettingManagement: get matches
activate BettingManagement
BettingManagement -> BettingManagement : findDataByCategory()
BettingManagement - -> BettingController 
deactivate BettingManagement

BettingController -> Spring: add matches to Model
activate Spring
Spring - -> BettingController
deactivate Spring

BettingController - -> User: Template: betting_football.html
deactivate BettingController 



User - -> User: fill form
User -> BettingController: addBet()
activate BettingController

BettingController -> BettingController: validate input

BettingController -> FinanceManagement: create FinanceForm
activate FinanceManagement
FinanceManagement -> FinanceManagement : withdraw()
FinanceManagement - -> BettingController : succesful
deactivate FinanceManagement

BettingController -> BettingManagement: create bet
activate BettingManagement

BettingManagement -> BettingManagement : createBet()
BettingManagement -> BettingRepository: saveBet()
activate BettingRepository
BettingRepository - -> BettingManagement
deactivate BettingRepository

BettingManagement - -> BettingController
deactivate BettingManagement


BettingController -> Spring: add data to Model
activate Spring
Spring - -> BettingController
deactivate Spring

BettingController - -> User: Template: home.html
deactivate BettingController 

deactivate User
@enduml

PlantUML version 1.2022.1beta4(Unknown compile time)
(GPL source distribution)
Java Runtime: Java(TM) SE Runtime Environment
JVM: Java HotSpot(TM) 64-Bit Server VM
Default Encoding: UTF-8
Language: en
Country: US
--></g></svg>