<?xml version="1.0" encoding="UTF-8" standalone="no"?><svg xmlns="http://www.w3.org/2000/svg" xmlns:xlink="http://www.w3.org/1999/xlink" contentScriptType="application/ecmascript" contentStyleType="text/css" height="861px" preserveAspectRatio="none" style="width:1040px;height:861px;background:#FFFFFF;" version="1.1" viewBox="0 0 1040 861" width="1040px" zoomAndPan="magnify"><defs><filter height="300%" id="fqbhj5li6olz6" width="300%" x="-1" y="-1"><feGaussianBlur result="blurOut" stdDeviation="2.0"/><feColorMatrix in="blurOut" result="blurOut2" type="matrix" values="0 0 0 0 0 0 0 0 0 0 0 0 0 0 0 0 0 0 .4 0"/><feOffset dx="4.0" dy="4.0" in="blurOut2" result="blurOut3"/><feBlend in="SourceGraphic" in2="blurOut3" mode="normal"/></filter></defs><g><rect fill="#FFFFFF" filter="url(#fqbhj5li6olz6)" height="145.6641" style="stroke:#A80036;stroke-width:1.0;" width="10" x="25.5" y="654.7578"/><rect fill="#FFFFFF" filter="url(#fqbhj5li6olz6)" height="495.9297" style="stroke:#A80036;stroke-width:1.0;" width="10" x="85.5" y="129.6953"/><rect fill="#FFFFFF" filter="url(#fqbhj5li6olz6)" height="29.1328" style="stroke:#A80036;stroke-width:1.0;" width="10" x="366.5" y="71.4297"/><rect fill="#FFFFFF" filter="url(#fqbhj5li6olz6)" height="53.2656" style="stroke:#A80036;stroke-width:1.0;" width="10" x="366.5" y="129.6953"/><rect fill="#FFFFFF" filter="url(#fqbhj5li6olz6)" height="158.6641" style="stroke:#A80036;stroke-width:1.0;" width="10" x="366.5" y="226.8984"/><rect fill="#FFFFFF" filter="url(#fqbhj5li6olz6)" height="87.3984" style="stroke:#A80036;stroke-width:1.0;" width="10" x="366.5" y="421.6953"/><rect fill="#FFFFFF" filter="url(#fqbhj5li6olz6)" height="87.3984" style="stroke:#A80036;stroke-width:1.0;" width="10" x="366.5" y="538.2266"/><rect fill="#FFFFFF" filter="url(#fqbhj5li6olz6)" height="145.6641" style="stroke:#A80036;stroke-width:1.0;" width="10" x="366.5" y="654.7578"/><rect fill="#FFFFFF" filter="url(#fqbhj5li6olz6)" height="29.1328" style="stroke:#A80036;stroke-width:1.0;" width="10" x="632.5" y="71.4297"/><rect fill="#FFFFFF" filter="url(#fqbhj5li6olz6)" height="129.5313" style="stroke:#A80036;stroke-width:1.0;" width="10" x="632.5" y="226.8984"/><rect fill="#FFFFFF" filter="url(#fqbhj5li6olz6)" height="29.1328" style="stroke:#A80036;stroke-width:1.0;" width="10" x="632.5" y="567.3594"/><rect fill="#FFFFFF" filter="url(#fqbhj5li6olz6)" height="29.1328" style="stroke:#A80036;stroke-width:1.0;" width="10" x="632.5" y="683.8906"/><rect fill="#FFFFFF" filter="url(#fqbhj5li6olz6)" height="71.2656" style="stroke:#A80036;stroke-width:1.0;" width="10" x="835.5" y="256.0313"/><rect fill="#FFFFFF" filter="url(#fqbhj5li6olz6)" height="29.1328" style="stroke:#A80036;stroke-width:1.0;" width="10" x="992.5" y="450.8281"/><rect fill="#FFFFFF" filter="url(#fqbhj5li6olz6)" height="29.1328" style="stroke:#A80036;stroke-width:1.0;" width="10" x="992.5" y="742.1563"/><rect fill="#FFFFFF" filter="url(#fqbhj5li6olz6)" height="248.8672" style="stroke:#000000;stroke-width:2.0;" width="941.5" x="56" y="144.6953"/><rect fill="#FFFFFF" height="202.6016" style="stroke:none;stroke-width:1.0;" width="941.5" x="56" y="190.9609"/><line style="stroke:#A80036;stroke-width:1.0;stroke-dasharray:5.0,5.0;" x1="30" x2="30" y1="40.2969" y2="818.4219"/><line style="stroke:#A80036;stroke-width:1.0;stroke-dasharray:5.0,5.0;" x1="90" x2="90" y1="40.2969" y2="818.4219"/><line style="stroke:#A80036;stroke-width:1.0;stroke-dasharray:5.0,5.0;" x1="371.5" x2="371.5" y1="40.2969" y2="818.4219"/><line style="stroke:#A80036;stroke-width:1.0;stroke-dasharray:5.0,5.0;" x1="637" x2="637" y1="40.2969" y2="818.4219"/><line style="stroke:#A80036;stroke-width:1.0;stroke-dasharray:5.0,5.0;" x1="840.5" x2="840.5" y1="40.2969" y2="818.4219"/><line style="stroke:#A80036;stroke-width:1.0;stroke-dasharray:5.0,5.0;" x1="997" x2="997" y1="40.2969" y2="818.4219"/><rect fill="#FEFECE" filter="url(#fqbhj5li6olz6)" height="30.2969" style="stroke:#A80036;stroke-width:1.5;" width="47" x="5" y="5"/><text fill="#000000" font-family="sans-serif" font-size="14" lengthAdjust="spacing" textLength="33" x="12" y="24.9951">Boss</text><rect fill="#FEFECE" filter="url(#fqbhj5li6olz6)" height="30.2969" style="stroke:#A80036;stroke-width:1.5;" width="47" x="5" y="817.4219"/><text fill="#000000" font-family="sans-serif" font-size="14" lengthAdjust="spacing" textLength="33" x="12" y="837.417">Boss</text><rect fill="#FEFECE" filter="url(#fqbhj5li6olz6)" height="30.2969" style="stroke:#A80036;stroke-width:1.5;" width="45" x="66" y="5"/><text fill="#000000" font-family="sans-serif" font-size="14" lengthAdjust="spacing" textLength="31" x="73" y="24.9951">User</text><rect fill="#FEFECE" filter="url(#fqbhj5li6olz6)" height="30.2969" style="stroke:#A80036;stroke-width:1.5;" width="45" x="66" y="817.4219"/><text fill="#000000" font-family="sans-serif" font-size="14" lengthAdjust="spacing" textLength="31" x="73" y="837.417">User</text><rect fill="#FEFECE" filter="url(#fqbhj5li6olz6)" height="30.2969" style="stroke:#A80036;stroke-width:1.5;" width="170" x="284.5" y="5"/><text fill="#000000" font-family="sans-serif" font-size="14" lengthAdjust="spacing" textLength="156" x="291.5" y="24.9951">CommunityController</text><rect fill="#FEFECE" filter="url(#fqbhj5li6olz6)" height="30.2969" style="stroke:#A80036;stroke-width:1.5;" width="170" x="284.5" y="817.4219"/><text fill="#000000" font-family="sans-serif" font-size="14" lengthAdjust="spacing" textLength="156" x="291.5" y="837.417">CommunityController</text><rect fill="#FEFECE" filter="url(#fqbhj5li6olz6)" height="30.2969" style="stroke:#A80036;stroke-width:1.5;" width="191" x="540" y="5"/><text fill="#000000" font-family="sans-serif" font-size="14" lengthAdjust="spacing" textLength="177" x="547" y="24.9951">CommunityManagement</text><rect fill="#FEFECE" filter="url(#fqbhj5li6olz6)" height="30.2969" style="stroke:#A80036;stroke-width:1.5;" width="191" x="540" y="817.4219"/><text fill="#000000" font-family="sans-serif" font-size="14" lengthAdjust="spacing" textLength="177" x="547" y="837.417">CommunityManagement</text><rect fill="#FEFECE" filter="url(#fqbhj5li6olz6)" height="30.2969" style="stroke:#A80036;stroke-width:1.5;" width="90" x="793.5" y="5"/><text fill="#000000" font-family="sans-serif" font-size="14" lengthAdjust="spacing" textLength="76" x="800.5" y="24.9951">Salespoint</text><rect fill="#FEFECE" filter="url(#fqbhj5li6olz6)" height="30.2969" style="stroke:#A80036;stroke-width:1.5;" width="90" x="793.5" y="817.4219"/><text fill="#000000" font-family="sans-serif" font-size="14" lengthAdjust="spacing" textLength="76" x="800.5" y="837.417">Salespoint</text><rect fill="#FEFECE" filter="url(#fqbhj5li6olz6)" height="30.2969" style="stroke:#A80036;stroke-width:1.5;" width="61" x="965" y="5"/><text fill="#000000" font-family="sans-serif" font-size="14" lengthAdjust="spacing" textLength="47" x="972" y="24.9951">Spring</text><rect fill="#FEFECE" filter="url(#fqbhj5li6olz6)" height="30.2969" style="stroke:#A80036;stroke-width:1.5;" width="61" x="965" y="817.4219"/><text fill="#000000" font-family="sans-serif" font-size="14" lengthAdjust="spacing" textLength="47" x="972" y="837.417">Spring</text><rect fill="#FFFFFF" filter="url(#fqbhj5li6olz6)" height="145.6641" style="stroke:#A80036;stroke-width:1.0;" width="10" x="25.5" y="654.7578"/><rect fill="#FFFFFF" filter="url(#fqbhj5li6olz6)" height="495.9297" style="stroke:#A80036;stroke-width:1.0;" width="10" x="85.5" y="129.6953"/><rect fill="#FFFFFF" filter="url(#fqbhj5li6olz6)" height="29.1328" style="stroke:#A80036;stroke-width:1.0;" width="10" x="366.5" y="71.4297"/><rect fill="#FFFFFF" filter="url(#fqbhj5li6olz6)" height="53.2656" style="stroke:#A80036;stroke-width:1.0;" width="10" x="366.5" y="129.6953"/><rect fill="#FFFFFF" filter="url(#fqbhj5li6olz6)" height="158.6641" style="stroke:#A80036;stroke-width:1.0;" width="10" x="366.5" y="226.8984"/><rect fill="#FFFFFF" filter="url(#fqbhj5li6olz6)" height="87.3984" style="stroke:#A80036;stroke-width:1.0;" width="10" x="366.5" y="421.6953"/><rect fill="#FFFFFF" filter="url(#fqbhj5li6olz6)" height="87.3984" style="stroke:#A80036;stroke-width:1.0;" width="10" x="366.5" y="538.2266"/><rect fill="#FFFFFF" filter="url(#fqbhj5li6olz6)" height="145.6641" style="stroke:#A80036;stroke-width:1.0;" width="10" x="366.5" y="654.7578"/><rect fill="#FFFFFF" filter="url(#fqbhj5li6olz6)" height="29.1328" style="stroke:#A80036;stroke-width:1.0;" width="10" x="632.5" y="71.4297"/><rect fill="#FFFFFF" filter="url(#fqbhj5li6olz6)" height="129.5313" style="stroke:#A80036;stroke-width:1.0;" width="10" x="632.5" y="226.8984"/><rect fill="#FFFFFF" filter="url(#fqbhj5li6olz6)" height="29.1328" style="stroke:#A80036;stroke-width:1.0;" width="10" x="632.5" y="567.3594"/><rect fill="#FFFFFF" filter="url(#fqbhj5li6olz6)" height="29.1328" style="stroke:#A80036;stroke-width:1.0;" width="10" x="632.5" y="683.8906"/><rect fill="#FFFFFF" filter="url(#fqbhj5li6olz6)" height="71.2656" style="stroke:#A80036;stroke-width:1.0;" width="10" x="835.5" y="256.0313"/><rect fill="#FFFFFF" filter="url(#fqbhj5li6olz6)" height="29.1328" style="stroke:#A80036;stroke-width:1.0;" width="10" x="992.5" y="450.8281"/><rect fill="#FFFFFF" filter="url(#fqbhj5li6olz6)" height="29.1328" style="stroke:#A80036;stroke-width:1.0;" width="10" x="992.5" y="742.1563"/><polygon fill="#A80036" points="620.5,67.4297,630.5,71.4297,620.5,75.4297,624.5,71.4297" style="stroke:#A80036;stroke-width:1.0;"/><line style="stroke:#A80036;stroke-width:1.0;" x1="376.5" x2="626.5" y1="71.4297" y2="71.4297"/><text fill="#000000" font-family="sans-serif" font-size="13" lengthAdjust="spacing" textLength="78" x="383.5" y="66.3638">1: Initialize()</text><polygon fill="#A80036" points="382.5,96.5625,372.5,100.5625,382.5,104.5625,378.5,100.5625" style="stroke:#A80036;stroke-width:1.0;"/><line style="stroke:#A80036;stroke-width:1.0;stroke-dasharray:2.0,2.0;" x1="376.5" x2="636.5" y1="100.5625" y2="100.5625"/><text fill="#000000" font-family="sans-serif" font-size="13" lengthAdjust="spacing" textLength="13" x="388.5" y="95.4966">2:</text><polygon fill="#A80036" points="354.5,125.6953,364.5,129.6953,354.5,133.6953,358.5,129.6953" style="stroke:#A80036;stroke-width:1.0;"/><line style="stroke:#A80036;stroke-width:1.0;" x1="95.5" x2="360.5" y1="129.6953" y2="129.6953"/><text fill="#000000" font-family="sans-serif" font-size="13" lengthAdjust="spacing" textLength="96" x="102.5" y="124.6294">3: createNew()</text><path d="M56,144.6953 L122,144.6953 L122,151.6953 L112,161.6953 L56,161.6953 L56,144.6953 " fill="#EEEEEE" style="stroke:#000000;stroke-width:1.0;"/><rect fill="none" height="248.8672" style="stroke:#000000;stroke-width:2.0;" width="941.5" x="56" y="144.6953"/><text fill="#000000" font-family="sans-serif" font-size="13" font-weight="bold" lengthAdjust="spacing" textLength="21" x="71" y="157.7622">alt</text><text fill="#000000" font-family="sans-serif" font-size="11" font-weight="bold" lengthAdjust="spacing" textLength="189" x="137" y="156.9058">[Errors in RegistrationForm]</text><polygon fill="#A80036" points="106.5,178.9609,96.5,182.9609,106.5,186.9609,102.5,182.9609" style="stroke:#A80036;stroke-width:1.0;"/><line style="stroke:#A80036;stroke-width:1.0;stroke-dasharray:2.0,2.0;" x1="100.5" x2="370.5" y1="182.9609" y2="182.9609"/><text fill="#000000" font-family="sans-serif" font-size="13" lengthAdjust="spacing" textLength="169" x="112.5" y="177.895">4: community-create.html</text><line style="stroke:#000000;stroke-width:1.0;stroke-dasharray:2.0,2.0;" x1="56" x2="997.5" y1="191.9609" y2="191.9609"/><text fill="#000000" font-family="sans-serif" font-size="11" font-weight="bold" lengthAdjust="spacing" textLength="36" x="61" y="202.1714">[Else]</text><polygon fill="#A80036" points="620.5,222.8984,630.5,226.8984,620.5,230.8984,624.5,226.8984" style="stroke:#A80036;stroke-width:1.0;"/><line style="stroke:#A80036;stroke-width:1.0;" x1="376.5" x2="626.5" y1="226.8984" y2="226.8984"/><text fill="#000000" font-family="sans-serif" font-size="13" lengthAdjust="spacing" textLength="143" x="383.5" y="221.8325">5: createCommunity()</text><polygon fill="#A80036" points="823.5,252.0313,833.5,256.0313,823.5,260.0313,827.5,256.0313" style="stroke:#A80036;stroke-width:1.0;"/><line style="stroke:#A80036;stroke-width:1.0;" x1="642.5" x2="829.5" y1="256.0313" y2="256.0313"/><text fill="#000000" font-family="sans-serif" font-size="13" lengthAdjust="spacing" textLength="174" x="649.5" y="250.9653">6: create new UserAccount</text><line style="stroke:#A80036;stroke-width:1.0;" x1="845.5" x2="887.5" y1="285.1641" y2="285.1641"/><line style="stroke:#A80036;stroke-width:1.0;" x1="887.5" x2="887.5" y1="285.1641" y2="298.1641"/><line style="stroke:#A80036;stroke-width:1.0;" x1="846.5" x2="887.5" y1="298.1641" y2="298.1641"/><polygon fill="#A80036" points="856.5,294.1641,846.5,298.1641,856.5,302.1641,852.5,298.1641" style="stroke:#A80036;stroke-width:1.0;"/><text fill="#000000" font-family="sans-serif" font-size="13" lengthAdjust="spacing" textLength="133" x="852.5" y="280.0981">7: save UserAccount</text><polygon fill="#A80036" points="653.5,323.2969,643.5,327.2969,653.5,331.2969,649.5,327.2969" style="stroke:#A80036;stroke-width:1.0;"/><line style="stroke:#A80036;stroke-width:1.0;stroke-dasharray:2.0,2.0;" x1="647.5" x2="839.5" y1="327.2969" y2="327.2969"/><text fill="#000000" font-family="sans-serif" font-size="13" lengthAdjust="spacing" textLength="98" x="659.5" y="322.231">8: UserAccount</text><polygon fill="#A80036" points="387.5,352.4297,377.5,356.4297,387.5,360.4297,383.5,356.4297" style="stroke:#A80036;stroke-width:1.0;"/><line style="stroke:#A80036;stroke-width:1.0;stroke-dasharray:2.0,2.0;" x1="381.5" x2="636.5" y1="356.4297" y2="356.4297"/><text fill="#000000" font-family="sans-serif" font-size="13" lengthAdjust="spacing" textLength="13" x="393.5" y="351.3638">9:</text><polygon fill="#A80036" points="106.5,381.5625,96.5,385.5625,106.5,389.5625,102.5,385.5625" style="stroke:#A80036;stroke-width:1.0;"/><line style="stroke:#A80036;stroke-width:1.0;stroke-dasharray:2.0,2.0;" x1="100.5" x2="370.5" y1="385.5625" y2="385.5625"/><text fill="#000000" font-family="sans-serif" font-size="13" lengthAdjust="spacing" textLength="201" x="112.5" y="380.4966">10: Template: community.html</text><polygon fill="#A80036" points="354.5,417.6953,364.5,421.6953,354.5,425.6953,358.5,421.6953" style="stroke:#A80036;stroke-width:1.0;"/><line style="stroke:#A80036;stroke-width:1.0;" x1="95.5" x2="360.5" y1="421.6953" y2="421.6953"/><text fill="#000000" font-family="sans-serif" font-size="13" lengthAdjust="spacing" textLength="76" x="102.5" y="416.6294">11: create()</text><polygon fill="#A80036" points="980.5,446.8281,990.5,450.8281,980.5,454.8281,984.5,450.8281" style="stroke:#A80036;stroke-width:1.0;"/><line style="stroke:#A80036;stroke-width:1.0;" x1="376.5" x2="986.5" y1="450.8281" y2="450.8281"/><text fill="#000000" font-family="sans-serif" font-size="13" lengthAdjust="spacing" textLength="221" x="383.5" y="445.7622">12: add RegistrationForm to Model</text><polygon fill="#A80036" points="387.5,475.9609,377.5,479.9609,387.5,483.9609,383.5,479.9609" style="stroke:#A80036;stroke-width:1.0;"/><line style="stroke:#A80036;stroke-width:1.0;stroke-dasharray:2.0,2.0;" x1="381.5" x2="996.5" y1="479.9609" y2="479.9609"/><text fill="#000000" font-family="sans-serif" font-size="13" lengthAdjust="spacing" textLength="21" x="393.5" y="474.895">13:</text><polygon fill="#A80036" points="106.5,505.0938,96.5,509.0938,106.5,513.0938,102.5,509.0938" style="stroke:#A80036;stroke-width:1.0;"/><line style="stroke:#A80036;stroke-width:1.0;stroke-dasharray:2.0,2.0;" x1="100.5" x2="370.5" y1="509.0938" y2="509.0938"/><text fill="#000000" font-family="sans-serif" font-size="13" lengthAdjust="spacing" textLength="247" x="112.5" y="504.0278">14: Template: community-create.html</text><polygon fill="#A80036" points="354.5,534.2266,364.5,538.2266,354.5,542.2266,358.5,538.2266" style="stroke:#A80036;stroke-width:1.0;"/><line style="stroke:#A80036;stroke-width:1.0;" x1="95.5" x2="360.5" y1="538.2266" y2="538.2266"/><text fill="#000000" font-family="sans-serif" font-size="13" lengthAdjust="spacing" textLength="32" x="102.5" y="533.1606">join()</text><polygon fill="#A80036" points="620.5,563.3594,630.5,567.3594,620.5,571.3594,624.5,567.3594" style="stroke:#A80036;stroke-width:1.0;"/><line style="stroke:#A80036;stroke-width:1.0;" x1="376.5" x2="626.5" y1="567.3594" y2="567.3594"/><text fill="#000000" font-family="sans-serif" font-size="13" lengthAdjust="spacing" textLength="109" x="383.5" y="562.2935">findCommunity()</text><polygon fill="#A80036" points="387.5,592.4922,377.5,596.4922,387.5,600.4922,383.5,596.4922" style="stroke:#A80036;stroke-width:1.0;"/><line style="stroke:#A80036;stroke-width:1.0;stroke-dasharray:2.0,2.0;" x1="381.5" x2="636.5" y1="596.4922" y2="596.4922"/><text fill="#000000" font-family="sans-serif" font-size="13" lengthAdjust="spacing" textLength="116" x="393.5" y="591.4263">return community</text><polygon fill="#A80036" points="101.5,621.625,91.5,625.625,101.5,629.625,97.5,625.625" style="stroke:#A80036;stroke-width:1.0;"/><line style="stroke:#A80036;stroke-width:1.0;stroke-dasharray:2.0,2.0;" x1="95.5" x2="370.5" y1="625.625" y2="625.625"/><text fill="#000000" font-family="sans-serif" font-size="13" lengthAdjust="spacing" textLength="176" x="107.5" y="620.5591">Template: community.html</text><polygon fill="#A80036" points="354.5,650.7578,364.5,654.7578,354.5,658.7578,358.5,654.7578" style="stroke:#A80036;stroke-width:1.0;"/><line style="stroke:#A80036;stroke-width:1.0;" x1="35.5" x2="360.5" y1="654.7578" y2="654.7578"/><text fill="#000000" font-family="sans-serif" font-size="13" lengthAdjust="spacing" textLength="75" x="42.5" y="649.6919">15: users();</text><polygon fill="#A80036" points="620.5,679.8906,630.5,683.8906,620.5,687.8906,624.5,683.8906" style="stroke:#A80036;stroke-width:1.0;"/><line style="stroke:#A80036;stroke-width:1.0;" x1="376.5" x2="626.5" y1="683.8906" y2="683.8906"/><text fill="#000000" font-family="sans-serif" font-size="13" lengthAdjust="spacing" textLength="237" x="383.5" y="678.8247">16: CommunityManagement.findAll()</text><polygon fill="#A80036" points="625.5,709.0234,635.5,713.0234,625.5,717.0234,629.5,713.0234" style="stroke:#A80036;stroke-width:1.0;"/><line style="stroke:#A80036;stroke-width:1.0;stroke-dasharray:2.0,2.0;" x1="376.5" x2="631.5" y1="713.0234" y2="713.0234"/><text fill="#000000" font-family="sans-serif" font-size="13" lengthAdjust="spacing" textLength="21" x="383.5" y="707.9575">17:</text><polygon fill="#A80036" points="980.5,738.1563,990.5,742.1563,980.5,746.1563,984.5,742.1563" style="stroke:#A80036;stroke-width:1.0;"/><line style="stroke:#A80036;stroke-width:1.0;" x1="376.5" x2="986.5" y1="742.1563" y2="742.1563"/><text fill="#000000" font-family="sans-serif" font-size="13" lengthAdjust="spacing" textLength="186" x="383.5" y="737.0903">18: add Community to Model</text><polygon fill="#A80036" points="387.5,767.2891,377.5,771.2891,387.5,775.2891,383.5,771.2891" style="stroke:#A80036;stroke-width:1.0;"/><line style="stroke:#A80036;stroke-width:1.0;stroke-dasharray:2.0,2.0;" x1="381.5" x2="996.5" y1="771.2891" y2="771.2891"/><text fill="#000000" font-family="sans-serif" font-size="13" lengthAdjust="spacing" textLength="21" x="393.5" y="766.2231">19:</text><polygon fill="#A80036" points="41.5,796.4219,31.5,800.4219,41.5,804.4219,37.5,800.4219" style="stroke:#A80036;stroke-width:1.0;"/><line style="stroke:#A80036;stroke-width:1.0;stroke-dasharray:2.0,2.0;" x1="35.5" x2="370.5" y1="800.4219" y2="800.4219"/><text fill="#000000" font-family="sans-serif" font-size="13" lengthAdjust="spacing" textLength="178" x="47.5" y="795.356">20: Template: communities</text><!--MD5=[66152b8e0f5b1698defe967ae0edabfa]
@startuml
participant Boss order 1
participant User order 2
participant CommunityController order 3
participant CommunityManagement order 4
participant Salespoint order 5
participant Spring order 6

CommunityController -> CommunityManagement : 1: Initialize()
activate CommunityController
activate CommunityManagement
CommunityController <- - CommunityManagement : 2:
deactivate CommunityManagement
deactivate CommunityController

User -> CommunityController : 3: createNew()
activate User
alt Errors in RegistrationForm
    activate CommunityController
    User <- - CommunityController : 4: community-create.html
    deactivate CommunityController
else Else
    CommunityController -> CommunityManagement : 5: createCommunity()
    activate CommunityController
    activate CommunityManagement
    CommunityManagement -> Salespoint : 6: create new UserAccount
    activate Salespoint
    Salespoint -> Salespoint : 7: save UserAccount
    CommunityManagement <- - Salespoint : 8: UserAccount
    deactivate Salespoint
    CommunityController <- - CommunityManagement : 9:
    deactivate CommunityManagement
    User <- - CommunityController : 10: Template: community.html
    deactivate CommunityController
end
User -> CommunityController : 11: create()
activate CommunityController
CommunityController -> Spring : 12: add RegistrationForm to Model
activate Spring
CommunityController <- - Spring : 13:
deactivate Spring
User <- - CommunityController : 14: Template: community-create.html
deactivate CommunityController

User -> CommunityController : join()
activate CommunityController
CommunityController -> CommunityManagement : findCommunity()
activate CommunityManagement
CommunityController <- - CommunityManagement : return community
deactivate CommunityManagement
User <- - CommunityController : Template: community.html
deactivate CommunityController

deactivate User

Boss -> CommunityController : 15: users();
activate Boss
activate CommunityController
CommunityController -> CommunityManagement : 16: CommunityManagement.findAll()
activate CommunityManagement
CommunityManagement <- - CommunityController : 17:
deactivate CommunityManagement
CommunityController -> Spring : 18: add Community to Model
activate Spring
CommunityController <- - Spring : 19:
deactivate Spring
Boss <- - CommunityController : 20: Template: communities
deactivate CommunityController
deactivate Boss
@enduml

PlantUML version 1.2021.14(Fri Nov 12 16:46:50 UTC 2021)
(GPL source distribution)
Java Runtime: Java(TM) SE Runtime Environment
JVM: Java HotSpot(TM) 64-Bit Server VM
Default Encoding: UTF-8
Language: en
Country: US
--></g></svg>